<svg width="48" height="48" viewBox="0 0 48 48" fill="none" xmlns="http://www.w3.org/2000/svg">
<rect width="48" height="48" rx="24" fill="#32334A"/>
<path d="M29.7071 25.2929C30.0771 25.6629 30.0965 26.2506 29.7655 26.6435L29.7071 26.7071L24.7071 31.7071C24.3371 32.0771 23.7494 32.0965 23.3565 31.7655L23.2929 31.7071L18.2929 26.7071C17.9024 26.3166 17.9024 25.6834 18.2929 25.2929C18.6629 24.9229 19.2506 24.9035 19.6435 25.2345L19.7071 25.2929L24 29.5855L28.2929 25.2929C28.6629 24.9229 29.2506 24.9035 29.6435 25.2345L29.7071 25.2929Z" fill="white"/>
<path d="M29.7071 17.2929C30.0771 17.6629 30.0965 18.2506 29.7655 18.6435L29.7071 18.7071L24.7071 23.7071C24.3371 24.0771 23.7494 24.0965 23.3565 23.7655L23.2929 23.7071L18.2929 18.7071C17.9024 18.3166 17.9024 17.6834 18.2929 17.2929C18.6629 16.9229 19.2506 16.9035 19.6435 17.2345L19.7071 17.2929L24 21.5855L28.2929 17.2929C28.6629 16.9229 29.2506 16.9035 29.6435 17.2345L29.7071 17.2929Z" fill="white"/>
</svg>
