<svg width="41" height="40" viewBox="0 0 41 40" fill="none" xmlns="http://www.w3.org/2000/svg">
<path d="M30.7457 24.4575C31.7249 22.9585 33.3049 22.9585 34.2841 24.4575L40.3816 33.9447C41.3608 35.4437 40.5596 36.6666 38.6013 36.6666H26.3173C24.3813 36.6666 23.5801 35.4437 24.537 33.9447L30.7457 24.4575Z" fill="#7379FF"/>
<path d="M18.8669 4.51927C19.839 2.93791 21.3854 2.93791 22.3575 4.51927L23.7052 6.80808L26.8865 12.0723C27.6598 13.5705 27.6598 15.3391 26.8865 16.8372L16.2157 34.2529C15.2437 35.6679 13.6309 36.5626 11.8413 36.6666H2.9821C1.03794 36.6666 0.2426 35.3973 1.21469 33.7952L18.8669 4.51927Z" fill="#7379FF"/>
</svg>
