<svg width="41" height="40" viewBox="0 0 41 40" fill="none" xmlns="http://www.w3.org/2000/svg">
<path fill-rule="evenodd" clip-rule="evenodd" d="M20.1998 9.0406L12.4318 16.8084L7.91206 12.2884L20.1998 0L32.4917 12.2924L27.9718 16.8124L20.1998 9.0406ZM4.72033 15.4793L0.200195 19.9994L4.72007 24.5193L9.24015 19.9991L4.72033 15.4793ZM12.4318 23.1916L20.1998 30.9594L27.9716 23.1878L32.494 27.7054L32.4917 27.7078L20.1998 40L7.91165 27.712L7.90525 27.7056L12.4318 23.1916ZM35.6803 15.4818L31.1602 20.0019L35.6801 24.5218L40.2002 20.0016L35.6803 15.4818Z" fill="#7379FF"/>
<path opacity="0.60158" d="M24.7848 19.9976H24.7868L20.2001 15.4111L16.8105 18.8006H16.8103L16.421 19.1903L15.6177 19.9936L15.6113 19.9999L15.6177 20.0065L20.2001 24.5891L24.7868 20.0025L24.7889 19.9999L24.7848 19.9976Z" fill="#7379FF"/>
</svg>
