<svg width="16" height="16" viewBox="0 0 16 16" fill="none" xmlns="http://www.w3.org/2000/svg">
<path d="M0.390524 0.390524C0.883818 -0.10277 1.66747 -0.128732 2.19133 0.312636L2.27614 0.390524L15.6095 13.7239C16.1302 14.2446 16.1302 15.0888 15.6095 15.6095C15.1162 16.1028 14.3325 16.1287 13.8087 15.6874L13.7239 15.6095L0.390524 2.27614C-0.130175 1.75544 -0.130175 0.911223 0.390524 0.390524Z" fill="#878DAF"/>
<path d="M13.7239 0.390524C14.2446 -0.130175 15.0888 -0.130175 15.6095 0.390524C16.1028 0.883818 16.1287 1.66747 15.6874 2.19133L15.6095 2.27614L2.27614 15.6095C1.75544 16.1302 0.911223 16.1302 0.390524 15.6095C-0.10277 15.1162 -0.128732 14.3325 0.312636 13.8087L0.390524 13.7239L13.7239 0.390524Z" fill="#878DAF"/>
</svg>
