<svg width="17" height="17" viewBox="0 0 17 17" fill="none" xmlns="http://www.w3.org/2000/svg">
<path fill-rule="evenodd" clip-rule="evenodd" d="M8.55 0.500062L15.6387 0.500061C16.0737 0.500061 16.4263 0.852697 16.4263 1.28769V8.3764C16.4263 8.8114 16.0737 9.16403 15.6387 9.16403C15.2037 9.16403 14.8511 8.8114 14.8511 8.3764V3.18921L6.49671 11.5436L5.38282 10.4297L13.7372 2.07533L8.55 2.07533C8.11501 2.07533 7.76237 1.72269 7.76237 1.2877C7.76237 0.852697 8.11501 0.500061 8.55 0.500062Z" fill="#0AD5E7"/>
<path d="M7.97688 0.747388H14.6037C15.4737 0.747388 16.1789 1.45266 16.1789 2.32266V7.40861V8.94954C16.0379 9.08252 15.8478 9.16403 15.6387 9.16403C15.2037 9.16403 14.8511 8.8114 14.8511 8.3764V3.18921L14.6037 3.43658V2.32266H13.4898L13.7372 2.07533L8.55 2.07533C8.11501 2.07533 7.76237 1.72269 7.76237 1.2877C7.76237 1.07854 7.84387 0.888418 7.97688 0.747388Z" fill="#0AD5E7"/>
<path d="M5.44559 0.747388H2.00154C1.13154 0.747388 0.42627 1.45266 0.42627 2.32266V14.9248C0.42627 15.7948 1.13154 16.5001 2.00154 16.5001H14.6037C15.4737 16.5001 16.1789 15.7948 16.1789 14.9248V11.4808C16.0034 11.5111 15.8229 11.5269 15.6387 11.5269C15.2761 11.5269 14.9279 11.4657 14.6037 11.353V14.9248H2.00154V2.32266H5.57338C5.46068 1.99849 5.39944 1.65025 5.39944 1.2877C5.39944 1.10347 5.41525 0.922942 5.44559 0.747388Z" fill="#0AD5E7"/>
</svg>
