<svg width="31" height="27" viewBox="0 0 31 27" fill="none" xmlns="http://www.w3.org/2000/svg">
<path d="M29.9561 23.1147L17.2715 1.14916C16.8608 0.438004 16.102 0 15.2808 0C14.4596 0 13.7007 0.437913 13.2901 1.14916L0.605498 23.1147C0.194682 23.8258 0.194682 24.7023 0.605317 25.4135C1.01595 26.1248 1.77484 26.563 2.5962 26.563H27.9654C28.7866 26.563 29.5456 26.1249 29.9562 25.4135C30.3668 24.7023 30.3668 23.8258 29.9561 23.1147ZM2.5962 24.2642L15.2808 2.29868L27.9654 24.2642H2.5962Z" fill="#FF8900"/>
<path d="M13.6895 10.2126L14.3488 17.7597C14.3872 18.204 14.7398 18.5701 15.1994 18.6103C15.7141 18.6553 16.1679 18.2744 16.2128 17.7597L16.872 10.2126C16.8791 10.1244 16.88 10.0255 16.872 9.93461C16.7953 9.0557 16.0207 8.40555 15.1418 8.48221C14.263 8.55904 13.6128 9.33385 13.6895 10.2126Z" fill="#FF8900"/>
<path d="M15.2808 21.7151C16.009 21.7151 16.5992 21.1248 16.5992 20.3966C16.5992 19.6684 16.009 19.0781 15.2808 19.0781C14.5526 19.0781 13.9623 19.6684 13.9623 20.3966C13.9623 21.1248 14.5526 21.7151 15.2808 21.7151Z" fill="#FF8900"/>
</svg>
