<svg width="24" height="24" viewBox="0 0 24 24" fill="none" xmlns="http://www.w3.org/2000/svg">
<circle cx="12" cy="12" r="4" fill="white"/>
<path fill-rule="evenodd" clip-rule="evenodd" d="M12 5C11.4477 5 11 4.55228 11 4V3C11 2.44772 11.4477 2 12 2C12.5523 2 13 2.44772 13 3V4C13 4.55228 12.5523 5 12 5Z" fill="white"/>
<path fill-rule="evenodd" clip-rule="evenodd" d="M11 20C11 19.4477 11.4477 19 12 19C12.5523 19 13 19.4477 13 20V21C13 21.5523 12.5523 22 12 22C11.4477 22 11 21.5523 11 21V20Z" fill="white"/>
<path fill-rule="evenodd" clip-rule="evenodd" d="M5 12C5 12.5523 4.55228 13 4 13H3C2.44772 13 2 12.5523 2 12C2 11.4477 2.44772 11 3 11H4C4.55228 11 5 11.4477 5 12Z" fill="white"/>
<path fill-rule="evenodd" clip-rule="evenodd" d="M22 12C22 12.5523 21.5523 13 21 13H20C19.4477 13 19 12.5523 19 12C19 11.4477 19.4477 11 20 11H21C21.5523 11 22 11.4477 22 12Z" fill="white"/>
<path fill-rule="evenodd" clip-rule="evenodd" d="M7.05025 7.05025C6.65972 7.44077 6.02656 7.44077 5.63603 7.05025L4.92893 6.34314C4.5384 5.95262 4.5384 5.31945 4.92893 4.92893C5.31945 4.5384 5.95262 4.5384 6.34314 4.92893L7.05025 5.63603C7.44077 6.02656 7.44077 6.65972 7.05025 7.05025Z" fill="white"/>
<path fill-rule="evenodd" clip-rule="evenodd" d="M16.9497 18.364C16.5592 17.9734 16.5592 17.3403 16.9497 16.9498C17.3402 16.5592 17.9734 16.5592 18.3639 16.9498L19.071 17.6569C19.4616 18.0474 19.4616 18.6805 19.071 19.0711C18.6805 19.4616 18.0474 19.4616 17.6568 19.0711L16.9497 18.364Z" fill="white"/>
<path fill-rule="evenodd" clip-rule="evenodd" d="M7.05028 16.9498C7.4408 17.3403 7.4408 17.9734 7.05028 18.364L6.34317 19.0711C5.95265 19.4616 5.31948 19.4616 4.92896 19.0711C4.53843 18.6805 4.53843 18.0474 4.92896 17.6569L5.63606 16.9498C6.02659 16.5592 6.65975 16.5592 7.05028 16.9498Z" fill="white"/>
<path fill-rule="evenodd" clip-rule="evenodd" d="M19.0711 4.92894C19.4616 5.31946 19.4616 5.95263 19.0711 6.34315L18.364 7.05026C17.9735 7.44079 17.3403 7.44079 16.9498 7.05026C16.5592 6.65974 16.5592 6.02657 16.9498 5.63605L17.6569 4.92894C18.0474 4.53842 18.6806 4.53842 19.0711 4.92894Z" fill="white"/>
</svg>
