<svg width="120" height="120" viewBox="0 0 120 120" fill="none" xmlns="http://www.w3.org/2000/svg">
<rect width="120" height="120" rx="60" fill="#FF7373"/>
<path d="M52.3905 28.3905C52.8838 27.8972 53.6675 27.8713 54.1913 28.3126L54.2761 28.3905L67.6095 41.7239C68.1302 42.2446 68.1302 43.0888 67.6095 43.6095C67.1162 44.1028 66.3325 44.1287 65.8087 43.6874L65.7239 43.6095L52.3905 30.2761C51.8698 29.7554 51.8698 28.9112 52.3905 28.3905Z" fill="white"/>
<path d="M65.7239 28.3905C66.2446 27.8698 67.0888 27.8698 67.6095 28.3905C68.1028 28.8838 68.1287 29.6675 67.6874 30.1913L67.6095 30.2761L54.2761 43.6095C53.7554 44.1302 52.9112 44.1302 52.3905 43.6095C51.8972 43.1162 51.8713 42.3325 52.3126 41.8087L52.3905 41.7239L65.7239 28.3905Z" fill="white"/>
</svg>
