<svg width="41" height="40" viewBox="0 0 41 40" fill="none" xmlns="http://www.w3.org/2000/svg">
<path d="M23.9333 12.3105C23.9333 6.56738 21.2113 1.62839 19.1407 0.0202541C19.1323 0.0149897 18.9822 -0.0714094 18.9949 0.158059C18.9952 0.161156 18.9925 0.162085 18.9925 0.164872C18.8201 11.254 13.3084 14.2594 10.2782 18.3081C3.2852 27.6508 9.78885 37.8943 16.4112 39.7874C20.117 40.8467 15.5555 37.9129 14.968 31.7166C14.2578 24.2271 23.9333 18.5106 23.9333 12.3105Z" fill="#7379FF"/>
<path opacity="0.60158" d="M28.2727 16.7136C28.1404 18.0744 26.5335 20.9842 24.4963 23.6564C17.5874 32.7207 21.5246 37.0895 23.7386 39.4365C25.0239 40.7988 23.7386 39.4365 26.9515 38.0441C27.2036 37.9352 33.2207 35.017 33.8724 28.3685C34.5032 21.9308 30.0315 17.8726 28.4398 16.6934C28.3907 16.6644 28.321 16.6446 28.2727 16.7136Z" fill="#7379FF"/>
</svg>
