<svg width="14" height="20" viewBox="0 0 14 20" fill="none" xmlns="http://www.w3.org/2000/svg">
<path fill-rule="evenodd" clip-rule="evenodd" d="M3.92044 7.83017C5.93445 7.69661 7.96064 7.69829 9.99858 7.83269V5.19033C9.99858 3.52074 8.62931 2.15146 6.95972 2.15146C5.29014 2.15146 3.92044 3.52074 3.92044 5.19033V7.83017ZM6.95972 11.171C7.83127 11.171 8.53775 11.8775 8.53775 12.7491C8.53775 13.1262 8.40544 13.4723 8.18493 13.7437C7.90729 14.0847 7.77289 14.4628 7.77289 14.9021V15.3188C7.77289 16.0883 6.14614 16.0883 6.14614 15.3188V14.9021C6.14614 14.4628 6.01173 14.0847 5.73452 13.7437C5.51401 13.4723 5.38128 13.1262 5.38128 12.7491C5.38128 11.8775 6.08818 11.171 6.95972 11.171ZM11.924 8.01288C12.8711 8.21492 13.6125 8.94702 13.6125 9.93365V17.1118C13.6125 18.1917 12.7292 19.0755 11.6489 19.0755H2.26976C1.18988 19.0755 0.306152 18.1917 0.306152 17.1118V9.93365C0.306152 8.94744 1.04791 8.21744 1.99506 8.01372V5.19033C1.99506 2.45808 4.22706 0.226074 6.9593 0.226074C9.69155 0.226074 11.9235 2.45808 11.9235 5.19033L11.924 8.01288Z" fill="#FF8900"/>
</svg>
