<svg width="136" height="40" viewBox="0 0 136 40" fill="none" xmlns="http://www.w3.org/2000/svg">
<path d="M53.52 27V12.4H58.14C59.1133 12.4 59.9533 12.58 60.66 12.94C61.38 13.3 61.94 13.8067 62.34 14.46C62.74 15.1 62.94 15.86 62.94 16.74C62.94 17.7133 62.6933 18.5667 62.2 19.3C61.72 20.02 61.0667 20.5333 60.24 20.84L63.14 27H60.34L57.8 21.2H56.02V27H53.52ZM56.02 19H58.14C58.8467 19 59.4 18.8067 59.8 18.42C60.2 18.0333 60.4 17.5 60.4 16.82C60.4 16.14 60.1933 15.6 59.78 15.2C59.38 14.8 58.8333 14.6 58.14 14.6H56.02V19ZM70.0122 27.2C69.0789 27.2 68.2655 27.02 67.5722 26.66C66.8789 26.3 66.3389 25.8 65.9522 25.16C65.5789 24.5067 65.3922 23.7467 65.3922 22.88V20.12C65.3922 19.2533 65.5789 18.5 65.9522 17.86C66.3389 17.2067 66.8789 16.7 67.5722 16.34C68.2655 15.98 69.0789 15.8 70.0122 15.8C70.9322 15.8 71.7322 15.98 72.4122 16.34C73.1055 16.7 73.6389 17.2067 74.0122 17.86C74.3989 18.5 74.5922 19.2533 74.5922 20.12V22.1H67.8122V22.88C67.8122 24.44 68.5522 25.22 70.0322 25.22C71.1789 25.22 71.8522 24.84 72.0522 24.08H74.5122C74.3255 25.0267 73.8189 25.7867 72.9922 26.36C72.1789 26.92 71.1855 27.2 70.0122 27.2ZM67.8122 20.12V20.54L72.1722 20.52V20.1C72.1722 19.34 71.9922 18.76 71.6322 18.36C71.2722 17.9467 70.7322 17.74 70.0122 17.74C69.2789 17.74 68.7255 17.9467 68.3522 18.36C67.9922 18.7733 67.8122 19.36 67.8122 20.12ZM81.5644 27.18C80.311 27.18 79.2977 26.8933 78.5244 26.32C77.7644 25.7467 77.3644 24.9733 77.3244 24H79.8244C79.851 24.36 80.0177 24.6467 80.3244 24.86C80.6444 25.06 81.0577 25.16 81.5644 25.16H82.4444C83.0577 25.16 83.5177 25.04 83.8244 24.8C84.131 24.56 84.2844 24.2333 84.2844 23.82C84.2844 23.0867 83.7244 22.64 82.6044 22.48L81.2444 22.28C79.991 22.1067 79.071 21.7733 78.4844 21.28C77.8977 20.7867 77.6044 20.0467 77.6044 19.06C77.6044 18.0333 77.951 17.24 78.6444 16.68C79.3377 16.1067 80.3577 15.82 81.7044 15.82H82.4644C83.6777 15.82 84.651 16.0933 85.3844 16.64C86.131 17.1867 86.531 17.92 86.5844 18.84H84.0844C84.0444 18.5467 83.8777 18.3067 83.5844 18.12C83.3044 17.9333 82.931 17.84 82.4644 17.84H81.7044C81.131 17.84 80.711 17.9467 80.4444 18.16C80.191 18.36 80.0644 18.66 80.0644 19.06C80.0644 19.4333 80.1777 19.7133 80.4044 19.9C80.631 20.0867 80.9977 20.2133 81.5044 20.28L82.9244 20.48C84.231 20.6667 85.191 21.02 85.8044 21.54C86.431 22.0467 86.7444 22.8 86.7444 23.8C86.7444 24.88 86.3777 25.7133 85.6444 26.3C84.9244 26.8867 83.8577 27.18 82.4444 27.18H81.5644ZM95.1766 27C94.1232 27 93.2966 26.7067 92.6966 26.12C92.1099 25.5333 91.8166 24.7267 91.8166 23.7V18.26H88.8366V16H91.8166V12.9H94.3366V16H98.5566V18.26H94.3366V23.7C94.3366 24.3933 94.6766 24.74 95.3566 24.74H98.3566V27H95.1766ZM104.749 27.2C103.615 27.2 102.722 26.9067 102.069 26.32C101.415 25.72 101.089 24.9067 101.089 23.88C101.089 22.8 101.449 21.9667 102.169 21.38C102.902 20.7933 103.922 20.5 105.229 20.5H107.969V19.56C107.969 19.0267 107.795 18.6133 107.449 18.32C107.102 18.0133 106.629 17.86 106.029 17.86C105.482 17.86 105.029 17.98 104.669 18.22C104.309 18.46 104.095 18.7867 104.029 19.2H101.589C101.709 18.16 102.175 17.3333 102.989 16.72C103.802 16.1067 104.842 15.8 106.109 15.8C107.442 15.8 108.502 16.14 109.289 16.82C110.075 17.4867 110.469 18.3933 110.469 19.54V27H108.049V25.08H108.009C107.875 25.7333 107.515 26.2533 106.929 26.64C106.355 27.0133 105.629 27.2 104.749 27.2ZM105.569 25.32C106.275 25.32 106.849 25.14 107.289 24.78C107.742 24.42 107.969 23.9533 107.969 23.38V22.04H105.269C104.762 22.04 104.355 22.1867 104.049 22.48C103.742 22.7733 103.589 23.16 103.589 23.64C103.589 24.16 103.762 24.5733 104.109 24.88C104.469 25.1733 104.955 25.32 105.569 25.32ZM113.561 27V12.4H116.061V20.32H117.801L120.481 16H123.281L119.961 21.32L123.341 27H120.481L117.801 22.44H116.061V27H113.561ZM129.973 27.2C129.04 27.2 128.226 27.02 127.533 26.66C126.84 26.3 126.3 25.8 125.913 25.16C125.54 24.5067 125.353 23.7467 125.353 22.88V20.12C125.353 19.2533 125.54 18.5 125.913 17.86C126.3 17.2067 126.84 16.7 127.533 16.34C128.226 15.98 129.04 15.8 129.973 15.8C130.893 15.8 131.693 15.98 132.373 16.34C133.066 16.7 133.6 17.2067 133.973 17.86C134.36 18.5 134.553 19.2533 134.553 20.12V22.1H127.773V22.88C127.773 24.44 128.513 25.22 129.993 25.22C131.14 25.22 131.813 24.84 132.013 24.08H134.473C134.286 25.0267 133.78 25.7867 132.953 26.36C132.14 26.92 131.146 27.2 129.973 27.2ZM127.773 20.12V20.54L132.133 20.52V20.1C132.133 19.34 131.953 18.76 131.593 18.36C131.233 17.9467 130.693 17.74 129.973 17.74C129.24 17.74 128.686 17.9467 128.313 18.36C127.953 18.7733 127.773 19.36 127.773 20.12Z" fill="black"/>
<rect width="40" height="40" rx="20" fill="#7379FF"/>
<path d="M15.52 27V12.4H20.14C21.1133 12.4 21.9533 12.58 22.66 12.94C23.38 13.3 23.94 13.8067 24.34 14.46C24.74 15.1 24.94 15.86 24.94 16.74C24.94 17.7133 24.6933 18.5667 24.2 19.3C23.72 20.02 23.0667 20.5333 22.24 20.84L25.14 27H22.34L19.8 21.2H18.02V27H15.52ZM18.02 19H20.14C20.8467 19 21.4 18.8067 21.8 18.42C22.2 18.0333 22.4 17.5 22.4 16.82C22.4 16.14 22.1933 15.6 21.78 15.2C21.38 14.8 20.8333 14.6 20.14 14.6H18.02V19Z" fill="white"/>
</svg>
