<svg width="35" height="32" viewBox="0 0 35 32" fill="none" xmlns="http://www.w3.org/2000/svg">
<path d="M32.3679 1L19.4765 10.375L21.8737 4.85L32.3679 1Z" fill="#E17726" stroke="#E17726" stroke-width="0.25" stroke-linecap="round" stroke-linejoin="round"/>
<path d="M2.63213 1L15.4088 10.4625L13.1264 4.84999L2.63213 1Z" fill="#E27625" stroke="#E27625" stroke-width="0.25" stroke-linecap="round" stroke-linejoin="round"/>
<path d="M27.7262 22.7374L24.2961 27.8874L31.6408 29.8749L33.7448 22.8499L27.7262 22.7374Z" fill="#E27625" stroke="#E27625" stroke-width="0.25" stroke-linecap="round" stroke-linejoin="round"/>
<path d="M1.26767 22.8499L3.35885 29.8749L10.6908 27.8874L7.27346 22.7374L1.26767 22.8499Z" fill="#E27625" stroke="#E27625" stroke-width="0.25" stroke-linecap="round" stroke-linejoin="round"/>
<path d="M10.2954 14.0375L8.25529 17.0625L15.5234 17.3875L15.2812 9.70001L10.2954 14.0375Z" fill="#E27625" stroke="#E27625" stroke-width="0.25" stroke-linecap="round" stroke-linejoin="round"/>
<path d="M24.7042 14.0376L19.642 9.61258L19.4763 17.3876L26.7444 17.0626L24.7042 14.0376Z" fill="#E27625" stroke="#E27625" stroke-width="0.25" stroke-linecap="round" stroke-linejoin="round"/>
<path d="M10.6909 27.8874L15.09 25.7999L11.303 22.8999L10.6909 27.8874Z" fill="#E27625" stroke="#E27625" stroke-width="0.25" stroke-linecap="round" stroke-linejoin="round"/>
<path d="M19.91 25.7999L24.2963 27.8874L23.697 22.8999L19.91 25.7999Z" fill="#E27625" stroke="#E27625" stroke-width="0.25" stroke-linecap="round" stroke-linejoin="round"/>
<path d="M24.2963 27.8876L19.91 25.8001L20.267 28.6001L20.2287 29.7876L24.2963 27.8876Z" fill="#D5BFB2" stroke="#D5BFB2" stroke-width="0.25" stroke-linecap="round" stroke-linejoin="round"/>
<path d="M10.6909 27.8876L14.7713 29.7876L14.7458 28.6001L15.09 25.8001L10.6909 27.8876Z" fill="#D5BFB2" stroke="#D5BFB2" stroke-width="0.25" stroke-linecap="round" stroke-linejoin="round"/>
<path d="M14.8477 21.05L11.2008 20L13.7765 18.8375L14.8477 21.05Z" fill="#233447" stroke="#233447" stroke-width="0.25" stroke-linecap="round" stroke-linejoin="round"/>
<path d="M20.1522 21.05L21.2234 18.8375L23.8119 20L20.1522 21.05Z" fill="#233447" stroke="#233447" stroke-width="0.25" stroke-linecap="round" stroke-linejoin="round"/>
<path d="M10.6908 27.8874L11.3284 22.7374L7.27353 22.8499L10.6908 27.8874Z" fill="#CC6228" stroke="#CC6228" stroke-width="0.25" stroke-linecap="round" stroke-linejoin="round"/>
<path d="M23.6714 22.7374L24.2962 27.8874L27.7263 22.8499L23.6714 22.7374Z" fill="#CC6228" stroke="#CC6228" stroke-width="0.25" stroke-linecap="round" stroke-linejoin="round"/>
<path d="M26.7444 17.0624L19.4763 17.3874L20.152 21.05L21.2232 18.8374L23.8117 19.9999L26.7444 17.0624Z" fill="#CC6228" stroke="#CC6228" stroke-width="0.25" stroke-linecap="round" stroke-linejoin="round"/>
<path d="M11.2008 19.9999L13.7765 18.8374L14.8477 21.05L15.5234 17.3874L8.25529 17.0624L11.2008 19.9999Z" fill="#CC6228" stroke="#CC6228" stroke-width="0.25" stroke-linecap="round" stroke-linejoin="round"/>
<path d="M8.25554 17.0624L11.3031 22.8999L11.201 19.9999L8.25554 17.0624Z" fill="#E27525" stroke="#E27525" stroke-width="0.25" stroke-linecap="round" stroke-linejoin="round"/>
<path d="M23.8119 19.9999L23.6971 22.8999L26.7447 17.0624L23.8119 19.9999Z" fill="#E27525" stroke="#E27525" stroke-width="0.25" stroke-linecap="round" stroke-linejoin="round"/>
<path d="M15.5238 17.3874L14.848 21.05L15.7023 25.3749L15.8936 19.6749L15.5238 17.3874Z" fill="#E27525" stroke="#E27525" stroke-width="0.25" stroke-linecap="round" stroke-linejoin="round"/>
<path d="M19.4764 17.3874L19.1194 19.6625L19.2979 25.3749L20.1522 21.05L19.4764 17.3874Z" fill="#E27525" stroke="#E27525" stroke-width="0.25" stroke-linecap="round" stroke-linejoin="round"/>
<path d="M20.1522 21.0501L19.2979 25.375L19.91 25.8L23.6971 22.9L23.8119 20L20.1522 21.0501Z" fill="#F5841F" stroke="#F5841F" stroke-width="0.25" stroke-linecap="round" stroke-linejoin="round"/>
<path d="M11.2008 20L11.3029 22.9L15.0899 25.8L15.702 25.375L14.8477 21.0501L11.2008 20Z" fill="#F5841F" stroke="#F5841F" stroke-width="0.25" stroke-linecap="round" stroke-linejoin="round"/>
<path d="M20.2288 29.7875L20.267 28.6L19.9355 28.325H15.0646L14.7458 28.6L14.7713 29.7875L10.6909 27.8875L12.119 29.0375L15.0135 31H19.9737L22.881 29.0375L24.2963 27.8875L20.2288 29.7875Z" fill="#C0AC9D" stroke="#C0AC9D" stroke-width="0.25" stroke-linecap="round" stroke-linejoin="round"/>
<path d="M19.9099 25.7999L19.2978 25.375H15.702L15.09 25.7999L14.7457 28.6L15.0645 28.325H19.9354L20.267 28.6L19.9099 25.7999Z" fill="#161616" stroke="#161616" stroke-width="0.25" stroke-linecap="round" stroke-linejoin="round"/>
<path d="M32.9161 10.9875L34 5.8125L32.3678 1L19.91 10.0625L24.7044 14.0375L31.4752 15.975L32.9671 14.2625L32.3169 13.8L33.3496 12.875L32.5591 12.275L33.592 11.5L32.9161 10.9875Z" fill="#763E1A" stroke="#763E1A" stroke-width="0.25" stroke-linecap="round" stroke-linejoin="round"/>
<path d="M1 5.8125L2.0966 10.9875L1.39529 11.5L2.44088 12.275L1.65031 12.875L2.68315 13.8L2.03284 14.2625L3.52473 15.975L10.2956 14.0375L15.09 10.0625L2.63215 1L1 5.8125Z" fill="#763E1A" stroke="#763E1A" stroke-width="0.25" stroke-linecap="round" stroke-linejoin="round"/>
<path d="M31.4753 15.9749L24.7045 14.0375L26.7447 17.0625L23.6971 22.8999L27.7265 22.85H33.745L31.4753 15.9749Z" fill="#F5841F" stroke="#F5841F" stroke-width="0.25" stroke-linecap="round" stroke-linejoin="round"/>
<path d="M10.2954 14.0375L3.52462 15.9749L1.26767 22.85H7.27346L11.3028 22.8999L8.2553 17.0625L10.2954 14.0375Z" fill="#F5841F" stroke="#F5841F" stroke-width="0.25" stroke-linecap="round" stroke-linejoin="round"/>
<path d="M19.4764 17.3875L19.9099 10.0624L21.8735 4.84998H13.1263L15.0899 10.0624L15.5234 17.3875L15.6892 19.6875L15.702 25.375H19.2978L19.3106 19.6875L19.4764 17.3875Z" fill="#F5841F" stroke="#F5841F" stroke-width="0.25" stroke-linecap="round" stroke-linejoin="round"/>
</svg>
