<svg width="56" height="28" viewBox="0 0 56 28" fill="none" xmlns="http://www.w3.org/2000/svg">
<path fill-rule="evenodd" clip-rule="evenodd" d="M2.53707 28C3.16229 28 3.74755 27.6926 4.10243 27.1779L13.1876 14.0001L4.10243 0.82213C3.74755 0.307381 3.16229 0 2.53706 0C1.00501 0 0.102087 1.71921 0.971685 2.98055L8.56881 14.0001L0.9717 25.0195C0.102099 26.2808 1.00502 28 2.53707 28ZM10.6918 28C11.317 28 11.9023 27.6926 12.2572 27.1779L21.3424 14.0001L12.2572 0.822124C11.9023 0.307378 11.317 0 10.6918 0C9.15975 0 8.25683 1.7192 9.12642 2.98053L16.7236 14.0001L9.12644 25.0195C8.25684 26.2808 9.15975 28 10.6918 28ZM28.5666 27.1779C28.2118 27.6926 27.6265 28 27.0013 28C25.4692 28 24.5663 26.2808 25.4359 25.0195L33.0331 14.0001L25.4359 2.98053C24.5663 1.7192 25.4692 0 27.0013 0C27.6265 0 28.2118 0.307378 28.5666 0.822124L37.6519 14.0001L28.5666 27.1779ZM46.6793 27.1562C46.3043 27.6854 45.696 28 45.0473 28H35.4038C33.7806 28 32.8335 26.1683 33.7718 24.8438L41.4543 14.0001L33.7718 3.15617C32.8335 1.83167 33.7806 0 35.4038 0H45.0473C45.6959 0 46.3043 0.314555 46.6793 0.843819L56 14.0001L46.6793 27.1562ZM20.4119 27.1779C20.057 27.6926 19.4718 28 18.8466 28C17.3145 28 16.4116 26.2808 17.2812 25.0195L24.8783 14.0001L17.2812 2.98055C16.4116 1.71921 17.3145 0 18.8465 0C19.4718 0 20.057 0.307381 20.4119 0.82213L29.4971 14.0001L20.4119 27.1779Z" fill="#7379FF"/>
</svg>
