<?xml version="1.0" encoding="utf-8"?>
<!-- Generator: Adobe Illustrator 24.1.2, SVG Export Plug-In . SVG Version: 6.00 Build 0)  -->
<svg version="1.1" id="Слой_1" xmlns="http://www.w3.org/2000/svg" xmlns:xlink="http://www.w3.org/1999/xlink" x="0px" y="0px"
	 viewBox="0 0 48 48" style="enable-background:new 0 0 48 48;" xml:space="preserve">
<style type="text/css">
	.st0{fill:#FFFFFF;}
	.st1{fill-rule:evenodd;clip-rule:evenodd;fill:#31314D;}
</style>
<path class="st0" d="M27.4,26H4.8v-4.6c0-9.8,8-17.8,17.8-17.8h4.9V26z"/>
<path class="st1" d="M48,0H0v48h48V0z M25,6V5.5C25,5.8,25.2,6,25.5,6S26,5.8,26,5.5S25.8,5,25.5,5S25,5.2,25,5.5V4C14,4,5,13,5,24
	h1.5C6.2,24,6,24.2,6,24.5S6.2,25,6.5,25S7,24.8,7,24.5S6.8,24,6.5,24H7l0-0.3C7.2,13.9,15.2,6,25,6z"/>
</svg>
