<svg width="15" height="12" viewBox="0 0 15 12" fill="none" xmlns="http://www.w3.org/2000/svg">
<path d="M8.29289 0.292893C8.66286 -0.0770772 9.25061 -0.0965493 9.6435 0.234477L9.70711 0.292893L14.7071 5.29289C15.0771 5.66286 15.0965 6.25061 14.7655 6.6435L14.7071 6.70711L9.70711 11.7071C9.31658 12.0976 8.68342 12.0976 8.29289 11.7071C7.92292 11.3371 7.90345 10.7494 8.23448 10.3565L8.29289 10.2929L12.5855 6L8.29289 1.70711C7.92292 1.33714 7.90345 0.749394 8.23448 0.356501L8.29289 0.292893Z" fill="#8C8CB0"/>
<path d="M0.292893 0.292893C0.662864 -0.0770772 1.25061 -0.0965493 1.6435 0.234477L1.70711 0.292893L6.70711 5.29289C7.07708 5.66286 7.09655 6.25061 6.76552 6.6435L6.70711 6.70711L1.70711 11.7071C1.31658 12.0976 0.683418 12.0976 0.292893 11.7071C-0.0770772 11.3371 -0.0965493 10.7494 0.234477 10.3565L0.292893 10.2929L4.5855 6L0.292893 1.70711C-0.0770772 1.33714 -0.0965493 0.749394 0.234477 0.356501L0.292893 0.292893Z" fill="#8C8CB0"/>
</svg>
