<svg width="31" height="31" viewBox="0 0 31 31" fill="none" xmlns="http://www.w3.org/2000/svg">
<path d="M25.8992 15.015C25.8992 20.6851 21.3026 25.2817 15.6325 25.2817C9.96238 25.2817 5.36584 20.6851 5.36584 15.015C5.36584 9.34489 9.96238 4.74835 15.6325 4.74835C21.3026 4.74835 25.8992 9.34489 25.8992 15.015ZM15.6325 29.015C23.3645 29.015 29.6325 22.747 29.6325 15.015C29.6325 7.28303 23.3645 1.01501 15.6325 1.01501C7.90052 1.01501 1.63251 7.28303 1.63251 15.015C1.63251 22.747 7.90052 29.015 15.6325 29.015Z" fill="#29CC75" stroke="#100E1F" stroke-width="2"/>
<path d="M22.7294 9.01501L14.6073 17.1371L10.1895 12.7193L8.21057 14.6982L14.6073 21.095L24.7084 10.994L22.7294 9.01501Z" fill="#2AD97B"/>
</svg>
