<svg width="1440" height="1420" fill="none" xmlns="http://www.w3.org/2000/svg"><path d="M2210.87-644.428c-99.2-86.141-311.33 198.325-415.58 255.388-137.23 75.102-272.05-37.913-358.4 39.658-51.38 46.147-117.55 195.522 36.36 386.53 105.31 130.683-106.51 303.211 61.55 407.038 160.15 98.942 240.96-235.727 385.56-190.109 150.75 47.54 271.19-18.004 317.03-93.317 54.06-88.821 90.26-173.145-33.86-329.009-97.89-122.942 143.57-357.875 7.34-476.179z" stroke="#7776D1" stroke-miterlimit="10" stroke-linecap="round" stroke-linejoin="round"/><path opacity=".976" d="M1794.04-400.714c-141.01 73.515-270.52-23.752-358.33 56.481-51.77 47.135-120.77 193.459 28.09 383.779 103.06 131.776-96.62 302.77 72.2 403.74 163.25 97.638 242.07-223.295 386.86-177.87 152.34 47.716 269.73-24.829 318.04-99.542 57.69-89.21 94.32-178.4-27.87-335.34-97.4-125.111 132.57-353.114-5.44-471.383-100.4-86.07-308.73 185.489-413.55 240.135z" stroke="#7776D1" stroke-width=".984" stroke-miterlimit="10" stroke-linecap="round" stroke-linejoin="round"/><path opacity=".951" d="M1792.79-412.405c-144.85 71.91-268.99-9.592-358.25 73.303-52.15 48.105-124.01 191.449 19.82 381.046 100.81 132.923-86.71 302.276 82.84 400.443 166.36 96.315 243.18-210.881 388.17-165.615 153.92 47.875 268.29-31.635 319.06-105.749 61.35-89.58 98.36-183.673-21.88-341.67-96.89-127.315 121.57-348.388-18.24-466.622-101.61-86-306.19 172.58-411.52 224.864z" stroke="#7776D1" stroke-width=".969" stroke-miterlimit="10" stroke-linecap="round" stroke-linejoin="round"/><path opacity=".927" d="M1791.53-424.078c-148.76 70.288-267.24 4.778-358.17 90.125-52.43 49.216-127.27 189.492 11.55 378.295 98.6 134.087-76.74 301.765 93.5 397.146 169.53 94.975 244.29-198.45 389.48-153.36 155.49 48.034 266.9-38.442 320.06-111.974 65.06-89.967 102.44-188.98-15.88-348-96.39-129.537 110.57-343.663-31.02-461.861-102.83-85.911-303.73 159.655-409.52 209.629z" stroke="#7776D1" stroke-width=".953" stroke-miterlimit="10" stroke-linecap="round" stroke-linejoin="round"/><path opacity=".902" d="M1790.28-435.752c-152.72 68.631-265.65 18.992-358.1 106.931-52.8 50.221-130.59 187.622 3.26 375.562 96.36 135.285-66.75 301.2 104.15 393.848 172.73 93.617 245.42-186.018 390.78-141.105 157.08 48.193 265.55-45.248 321.09-118.181 68.81-90.355 106.53-194.305-9.89-354.331-95.87-131.794 99.57-338.936-43.82-457.099-104.02-85.859-301.29 146.659-407.47 194.375z" stroke="#7776D1" stroke-width=".938" stroke-miterlimit="10" stroke-linecap="round" stroke-linejoin="round"/><path opacity=".878" d="M1789.03-447.425c-156.76 66.937-264.05 33.204-358.03 123.753-53.16 51.226-133.92 185.806-5 372.81 94.12 136.538-56.71 300.619 114.81 390.551 175.96 92.242 246.53-173.586 392.1-128.867 158.67 48.352 264.21-52.037 322.09-124.405 72.58-90.725 110.64-199.63-3.89-360.662-95.34-134.051 88.56-334.21-56.6-452.338-105.26-85.753-298.93 133.663-405.48 179.158z" stroke="#7776D1" stroke-width=".922" stroke-miterlimit="10" stroke-linecap="round" stroke-linejoin="round"/><path opacity=".854" d="M1787.78-459.099c-160.83 65.227-262.46 47.417-357.96 140.576-53.53 52.231-137.3 184.042-13.29 370.078 91.88 137.824-46.64 299.983 125.48 387.252 179.2 90.849 247.64-161.154 393.4-116.611 160.26 48.528 262.91-58.826 323.12-130.613 76.37-91.095 114.76-205.008 2.09-366.991-94.8-136.308 77.57-329.485-69.39-447.578-106.46-85.699-296.59 120.544-403.45 163.887z" stroke="#7776D1" stroke-width=".906" stroke-miterlimit="10" stroke-linecap="round" stroke-linejoin="round"/><path opacity=".829" d="M1786.53-470.772c-164.98 63.464-260.88 61.612-357.89 157.398-53.9 53.236-140.72 182.332-21.56 367.327 89.63 139.147-36.53 299.331 136.13 383.938 182.49 89.437 248.75-148.723 394.71-104.356 161.82 48.686 261.63-65.598 324.13-136.838 80.22-91.448 118.9-210.387 8.09-373.322-94.26-138.601 66.57-324.759-82.17-442.816-107.69-85.594-294.3 107.441-401.44 148.669z" stroke="#7776D1" stroke-width=".891" stroke-miterlimit="10" stroke-linecap="round" stroke-linejoin="round"/><path opacity=".805" d="M1785.26-482.446c-169.14 61.665-259.31 75.808-357.8 174.221-54.27 54.224-144.2 180.71-29.84 364.576 87.39 140.505-26.4 298.626 146.77 380.658 185.79 87.992 249.88-136.291 396.01-92.101 163.41 48.845 260.38-72.351 325.14-143.062 84.08-91.783 123.08-215.783 14.08-379.652-93.69-140.893 55.58-320.034-94.96-438.056-108.86-85.523-291.99 94.252-399.4 133.416z" stroke="#7776D1" stroke-width=".875" stroke-miterlimit="10" stroke-linecap="round" stroke-linejoin="round"/><path opacity=".78" d="M1784.01-494.137c-173.37 59.814-257.72 89.985-357.73 191.043-54.66 55.229-147.71 179.123-38.11 361.843 85.12 141.916-16.25 297.885 157.43 377.343 189.13 86.528 250.99-123.877 397.32-79.863 164.99 49.004 259.15-79.087 326.16-149.269 87.97-92.118 127.26-221.197 20.08-385.983-93.13-143.203 44.57-315.308-107.75-433.295-110.1-85.435-289.78 81.045-397.4 118.181z" stroke="#7776D1" stroke-width=".86" stroke-miterlimit="10" stroke-linecap="round" stroke-linejoin="round"/><path opacity=".756" d="M1782.76-505.81c-177.62 57.926-256.16 104.18-357.66 207.865-55.03 56.217-151.27 177.607-46.39 359.092 82.84 143.344-6.08 297.128 168.09 374.063 192.49 85.03 252.1-111.444 398.64-67.607 166.58 49.163 257.94-85.823 327.17-155.494 91.88-92.435 131.45-226.628 26.07-392.314-92.55-145.513 33.57-310.564-120.53-428.533-111.32-85.364-287.58 67.766-395.39 102.928z" stroke="#7776D1" stroke-width=".844" stroke-miterlimit="10" stroke-linecap="round" stroke-linejoin="round"/><path opacity=".732" d="M1781.51-517.484c-181.9 55.987-254.59 118.358-357.59 224.688-55.42 57.204-154.86 176.161-54.66 356.36 80.53 144.825 4.12 296.315 178.74 370.747 195.87 83.495 253.23-99.013 399.94-55.352 168.15 49.339 256.74-92.542 328.19-161.701 95.82-92.735 135.67-232.077 32.07-398.644-91.96-147.841 22.57-305.838-133.32-423.772-112.54-85.294-285.38 54.453-393.37 87.674z" stroke="#7776D1" stroke-width=".829" stroke-miterlimit="10" stroke-linecap="round" stroke-linejoin="round"/><path opacity=".707" d="M1780.25-529.157c-186.23 53.976-253.03 132.534-357.52 241.493-55.8 58.191-158.52 174.767-62.94 353.608 78.23 146.359 14.37 295.487 189.39 367.45 199.28 81.943 254.25-86.282 401.25-43.097 169.63 49.833 255.55-99.26 329.19-167.908 99.77-93.017 139.9-237.543 38.06-404.974-91.36-150.186 11.6-301.113-146.1-419.011-113.72-85.206-283.19 41.104-391.33 72.439z" stroke="#7776D1" stroke-width=".813" stroke-miterlimit="10" stroke-linecap="round" stroke-linejoin="round"/><path opacity=".683" d="M1779-540.831c-190.57 51.932-251.46 146.712-357.45 258.316-56.19 59.178-162.24 173.409-71.2 350.857 75.87 147.911 24.6 294.605 200.05 364.153 202.69 80.356 255.36-73.85 402.55-30.859 171.22 50.009 254.39-105.943 330.22-174.133 103.72-93.282 144.14-243.01 44.04-411.305-90.73-152.549.6-296.386-158.89-414.232-114.94-85.118-281.06 27.702-389.32 57.203z" stroke="#7776D1" stroke-width=".797" stroke-miterlimit="10" stroke-linecap="round" stroke-linejoin="round"/><path opacity=".658" d="M1777.75-552.504c-194.96 49.815-249.91 160.872-357.36 275.138-56.58 60.166-166.03 172.122-79.49 348.124 73.52 149.516 34.86 293.706 210.7 360.855 206.15 78.734 256.47-61.418 403.85-18.603 172.8 50.185 253.23-112.627 331.22-180.358 107.71-93.529 148.41-248.493 50.04-417.635-90.1-154.912-10.4-291.661-171.67-409.472-116.15-85.064-278.93 14.248-387.29 41.951z" stroke="#7776D1" stroke-width=".782" stroke-miterlimit="10" stroke-linecap="round" stroke-linejoin="round"/><path opacity=".634" d="M1776.48-564.178c-199.34 47.647-248.36 175.032-357.29 291.961-56.96 61.136-169.86 170.87-87.76 345.373 71.12 151.138 45.16 292.772 221.36 357.575 209.61 77.077 257.59-48.986 405.18-6.348 174.37 50.362 252.09-119.291 332.25-186.564 111.71-93.758 152.69-253.995 56.03-423.966-89.47-157.292-21.42-286.953-184.49-404.728-117.35-84.994-276.79.776-385.28 26.697z" stroke="#7776D1" stroke-width=".766" stroke-miterlimit="10" stroke-linecap="round" stroke-linejoin="round"/><path opacity=".61" d="M1775.23-575.851c-203.77 45.407-246.81 189.192-357.22 308.783-57.35 62.123-173.77 169.689-96.04 342.64 68.67 152.813 55.45 291.784 232.01 354.26 213.07 75.402 258.71-36.537 406.48 5.907 175.96 50.538 250.95-125.939 333.25-192.789 115.71-93.969 156.99-259.514 62.02-430.296-88.8-159.673-32.39-282.209-197.25-399.949-118.56-84.924-274.68-12.749-383.25 11.444z" stroke="#7776D1" stroke-width=".751" stroke-miterlimit="10" stroke-linecap="round" stroke-linejoin="round"/><path opacity=".585" d="M1773.98-587.542c-208.21 43.114-245.28 203.351-357.15 325.605-57.74 63.094-177.72 168.543-104.31 339.89 66.2 154.523 65.76 290.778 242.67 350.962 216.57 73.673 259.82-24.105 407.79 18.145 177.52 50.697 249.83-132.588 334.27-198.996 119.75-94.181 161.31-265.034 68.02-436.627-88.11-162.071-43.4-277.483-210.05-395.188-119.78-84.818-272.6-26.274-381.24-3.791z" stroke="#7776D1" stroke-width=".735" stroke-miterlimit="10" stroke-linecap="round" stroke-linejoin="round"/><path opacity=".561" d="M1772.73-599.216c-212.66 40.752-243.73 217.511-357.08 342.428-58.15 64.063-181.76 167.45-112.59 337.156 63.68 156.269 76.07 289.756 253.31 347.665 220.08 71.91 260.93-11.673 409.09 30.401 179.12 50.873 248.72-139.236 335.28-205.221 123.78-94.358 165.65-270.553 74.01-442.957-87.42-164.47-54.39-272.758-222.82-390.427-120.97-84.748-270.49-39.87-379.2-19.045z" stroke="#7776D1" stroke-width=".719" stroke-miterlimit="10" stroke-linecap="round" stroke-linejoin="round"/><path opacity=".537" d="M1771.48-610.889c-217.12 38.335-242.2 231.671-357.01 359.25-58.54 65.051-185.85 166.374-120.86 334.405 61.13 158.033 86.4 288.699 263.98 344.368 223.6 70.111 262.04.741 410.39 42.656 180.7 51.032 247.59-145.848 336.3-211.428 127.84-94.516 170-276.09 80.01-449.288-86.72-166.885-65.4-268.031-235.62-385.666-122.2-84.694-268.41-53.5-377.19-34.297z" stroke="#7776D1" stroke-width=".704" stroke-miterlimit="10" stroke-linecap="round" stroke-linejoin="round"/><path opacity=".512" d="M1770.22-622.563c-221.58 35.85-240.66 245.814-356.91 376.056-58.94 66.02-190.01 165.35-129.15 331.654 58.5 159.831 96.75 287.605 274.63 341.07 227.12 68.278 263.17 13.172 411.72 54.911 182.28 51.208 246.47-152.46 337.3-217.652 131.89-94.657 174.35-281.645 85.99-455.619-85.99-169.3-76.39-263.288-248.4-380.904-123.41-84.589-266.34-67.114-375.18-49.516z" stroke="#7776D1" stroke-width=".688" stroke-miterlimit="10" stroke-linecap="round" stroke-linejoin="round"/><path opacity=".488" d="M1768.97-634.236c-226.05 33.292-239.12 259.973-356.85 392.878-59.32 66.99-194.23 164.363-137.41 328.92 55.83 161.683 107.1 286.477 285.29 337.773 230.67 66.408 264.28 25.604 413.03 67.149 183.87 51.367 245.38-159.056 338.32-223.877 135.95-94.798 178.74-287.2 91.99-461.949-85.26-171.716-87.39-258.562-261.2-376.143-124.64-84.501-264.28-80.78-373.17-64.751z" stroke="#7776D1" stroke-width=".673" stroke-miterlimit="10" stroke-linecap="round" stroke-linejoin="round"/><path opacity=".463" d="M1767.7-645.91c-230.52 30.665-237.59 274.116-356.77 409.701-59.74 67.96-198.54 163.394-145.7 326.17 53.09 163.534 117.44 285.33 295.95 334.475 234.21 64.486 265.39 38.018 414.33 79.405 185.44 51.525 244.27-165.651 339.35-230.085 140.02-94.904 183.15-292.771 97.98-468.279-84.5-174.15-98.39-253.837-273.97-371.365-125.85-84.448-262.19-94.516-371.17-80.022z" stroke="#7776D1" stroke-width=".657" stroke-miterlimit="10" stroke-linecap="round" stroke-linejoin="round"/><path opacity=".439" d="M1766.45-657.583c-235 27.967-236.07 288.257-356.7 426.523-60.14 68.93-202.91 162.441-153.97 323.437 50.29 165.421 127.81 284.148 306.6 331.177 237.77 62.547 266.52 50.45 415.63 91.66 187.03 51.684 243.19-172.228 340.36-236.309 144.09-95.01 187.55-298.326 103.97-474.592-83.72-176.583-109.39-249.111-286.75-366.604-127.07-84.394-260.1-108.27-369.14-95.292z" stroke="#7776D1" stroke-width=".641" stroke-miterlimit="10" stroke-linecap="round" stroke-linejoin="round"/><path opacity=".415" d="M1765.2-669.257c-239.5 25.217-234.54 302.382-356.64 443.346-60.54 69.9-207.33 161.524-162.24 320.686 47.41 167.326 138.17 282.95 317.24 327.88 241.33 60.554 267.63 62.864 416.94 103.915 188.61 51.843 242.09-178.805 341.37-242.515 148.18-95.099 191.98-303.899 109.97-480.923-82.95-179.035-120.38-244.385-299.55-361.843-128.24-84.342-258-122.043-367.09-110.546z" stroke="#7776D1" stroke-width=".626" stroke-miterlimit="10" stroke-linecap="round" stroke-linejoin="round"/><path opacity=".39" d="M1763.95-680.948c-243.96 22.395-233.03 316.525-356.57 460.168-60.95 70.87-211.84 160.625-170.51 317.935 44.45 169.248 148.53 281.716 327.91 324.583 244.89 58.526 268.76 75.296 418.24 116.153 190.2 52.002 241-185.365 342.38-248.74 152.25-95.169 196.42-309.489 115.96-487.271-82.14-181.486-131.38-239.66-312.33-357.082-129.46-84.201-255.92-135.762-365.08-125.746z" stroke="#7776D1" stroke-width=".61" stroke-miterlimit="10" stroke-linecap="round" stroke-linejoin="round"/><path opacity=".366" d="M1762.7-692.621c-248.43 19.502-231.51 330.666-356.48 476.99-61.36 71.822-216.41 159.726-178.79 315.202 41.42 171.187 158.89 280.463 338.55 321.285 248.47 56.463 269.95 87.41 419.56 128.408 191.89 51.773 239.92-191.924 343.4-254.947 156.34-95.222 200.88-315.06 121.95-493.601-81.32-183.955-142.38-234.934-325.12-352.321-130.69-84.148-253.85-149.586-363.07-141.016z" stroke="#7776D1" stroke-width=".595" stroke-miterlimit="10" stroke-linecap="round" stroke-linejoin="round"/><path opacity=".342" d="M1761.45-704.295c-252.9 16.541-230 344.791-356.41 493.813-61.76 72.792-221.06 158.844-187.08 312.451 38.3 173.127 169.26 279.194 349.22 317.988 252.04 54.347 271.06 99.842 420.86 140.664 193.46 51.931 238.83-198.467 344.41-261.173 160.44-95.257 205.34-320.65 127.94-499.914-80.48-186.405-153.38-230.207-337.9-347.559-131.89-84.078-251.75-163.411-361.04-156.27z" stroke="#7776D1" stroke-width=".579" stroke-miterlimit="10" stroke-linecap="round" stroke-linejoin="round"/><path opacity=".317" d="M1760.2-715.968c-257.34 13.525-228.49 358.933-356.34 510.618-62.19 73.761-225.77 157.962-195.35 309.717 35.1 175.085 179.63 277.889 359.87 314.691 255.6 52.195 272.17 112.273 422.17 152.901 195.04 52.09 237.73-205.009 345.42-267.379 164.54-95.292 209.84-326.24 133.94-506.245-79.63-188.874-164.36-225.481-350.7-342.798-133.11-83.989-249.65-177.254-359.01-171.505z" stroke="#7776D1" stroke-width=".564" stroke-miterlimit="10" stroke-linecap="round" stroke-linejoin="round"/><path opacity=".293" d="M1758.94-727.642c-261.77 10.422-226.98 373.058-356.26 527.441-62.57 74.731-230.55 157.08-203.61 306.967 31.79 177.042 189.98 276.566 370.52 311.393 259.19 50.009 273.31 124.705 423.48 165.156 196.63 52.249 236.64-211.551 346.43-273.604 168.62-95.309 214.33-331.83 139.93-512.575-78.75-191.343-175.38-220.738-363.48-338.037-134.32-83.901-247.55-191.096-357.01-186.741z" stroke="#7776D1" stroke-width=".548" stroke-miterlimit="10" stroke-linecap="round" stroke-linejoin="round"/><path opacity=".268" d="M1757.68-739.315c-266.2 7.265-225.47 387.182-356.18 544.263-63 75.684-235.38 156.181-211.9 304.233 28.38 179 200.35 275.209 381.17 308.096 262.77 47.769 274.42 137.137 424.78 177.412 198.22 52.407 235.57-218.075 347.46-279.811 172.73-95.31 218.84-337.42 145.92-518.906-77.87-193.829-186.37-216.012-376.27-333.276-135.53-83.866-245.42-205.009-354.98-202.011z" stroke="#7776D1" stroke-width=".532" stroke-miterlimit="10" stroke-linecap="round" stroke-linejoin="round"/><path opacity=".244" d="M1756.42-750.989c-270.6 4.056-223.97 401.307-356.12 561.086-63.4 76.653-240.28 155.264-220.16 301.483 24.88 180.956 210.71 273.85 391.83 304.797 266.34 45.495 275.53 149.552 426.1 189.668 199.79 52.584 234.48-224.6 348.46-286.035 176.84-95.31 223.37-343.028 151.92-525.254-76.97-196.298-197.36-211.287-389.05-328.516-136.74-83.759-243.31-218.869-352.98-217.229z" stroke="#7776D1" stroke-width=".517" stroke-miterlimit="10" stroke-linecap="round" stroke-linejoin="round"/><path opacity=".22" d="M1755.17-762.662c-274.99.776-222.47 415.449-356.04 577.908-63.82 77.606-245.24 154.347-228.44 298.732 21.27 182.878 221.06 272.475 402.48 301.5 269.92 43.185 276.63 161.983 427.4 201.905 201.38 52.743 233.39-231.106 349.49-292.242 180.94-95.293 227.9-348.618 157.9-531.567-76.05-198.784-208.35-206.561-401.84-323.754-137.94-83.689-241.17-232.799-350.95-232.482z" stroke="#7776D1" stroke-width=".501" stroke-miterlimit="10" stroke-linecap="round" stroke-linejoin="round"/><path opacity=".195" d="M1753.92-774.353c-279.38-2.575-220.97 429.556-355.97 594.73-64.22 78.576-250.25 153.395-236.71 295.999 17.54 184.801 231.43 271.065 413.15 298.203 273.48 40.857 277.74 174.414 428.69 214.178 202.96 52.901 232.3-237.613 350.48-298.467 185.04-95.257 232.45-354.225 163.9-537.897-75.1-201.271-219.35-201.835-414.62-318.993-139.16-83.619-239.02-246.73-348.92-247.753z" stroke="#7776D1" stroke-width=".485" stroke-miterlimit="10" stroke-linecap="round" stroke-linejoin="round"/><path opacity=".171" d="M1752.67-786.027c-283.74-5.977-219.47 443.681-355.9 611.553-64.63 79.528-255.32 152.426-244.99 293.248 13.71 186.705 241.77 269.636 423.79 294.905 277.05 38.442 278.87 186.847 430.01 226.417 204.55 53.059 231.21-244.121 351.51-304.692 189.14-95.222 237.01-359.815 169.89-544.228-74.15-203.757-230.35-197.109-427.42-314.214-140.35-83.531-236.87-260.661-346.89-262.989z" stroke="#7776D1" stroke-width=".47" stroke-miterlimit="10" stroke-linecap="round" stroke-linejoin="round"/><path opacity=".146" d="M1751.42-797.7c-288.08-9.434-218.28 457.576-355.83 628.375-65.2 80.375-260.47 151.42-253.28 290.497 9.75 188.575 252.1 268.208 434.46 291.608 280.61 36.026 279.98 199.278 431.31 238.672 206.12 53.236 230.12-250.627 352.52-310.899 193.24-95.169 241.59-365.423 175.88-550.558-73.18-206.244-241.35-192.384-440.2-309.454-141.57-83.477-234.7-274.626-344.86-278.241z" stroke="#7776D1" stroke-width=".454" stroke-miterlimit="10" stroke-linecap="round" stroke-linejoin="round"/><path opacity=".122" d="M1750.17-809.374c-292.4-12.96-216.75 471.719-355.76 645.181-65.58 81.362-265.64 150.38-261.55 287.764 5.68 190.39 262.43 266.744 445.1 288.31 284.17 33.557 281.1 211.692 432.64 250.927 207.7 53.395 229.03-257.116 353.54-317.124 197.35-95.116 246.18-371.012 181.88-556.888-72.2-208.748-252.35-187.658-452.98-304.692-142.8-83.39-232.57-288.575-342.87-293.478z" stroke="#7776D1" stroke-width=".439" stroke-miterlimit="10" stroke-linecap="round" stroke-linejoin="round"/><path opacity=".098" d="M1748.9-821.047c-296.68-16.558-215.21 485.878-355.69 662.003-65.99 82.331-270.87 149.286-269.81 285.013 1.5 192.189 272.76 265.281 455.76 285.013 287.71 31.035 282.22 224.123 433.95 263.164 209.28 53.554 227.95-263.605 354.55-323.33 201.47-95.046 250.78-376.62 187.88-563.22-71.19-211.216-263.35-182.914-465.78-299.913-144-83.319-230.38-302.576-340.86-308.73z" stroke="#7776D1" stroke-width=".423" stroke-miterlimit="10" stroke-linecap="round" stroke-linejoin="round"/><path opacity=".073" d="M1747.65-832.721c-300.94-20.19-213.66 500.038-355.6 678.826-66.38 83.319-276.14 148.14-278.1 282.279-2.82 193.918 283.09 263.782 466.41 281.716 291.25 28.496 283.33 236.555 435.25 275.42 210.87 53.712 226.86-270.077 355.56-329.538 205.57-94.992 255.38-382.227 193.88-569.567-70.16-213.72-274.34-178.188-478.55-295.17-145.24-83.231-228.2-316.542-338.85-323.966z" stroke="#7776D1" stroke-width=".408" stroke-miterlimit="10" stroke-linecap="round" stroke-linejoin="round"/><path opacity=".049" d="M1746.4-844.394c-305.19-23.876-212.13 514.197-355.53 695.648-66.79 84.289-281.47 146.941-286.37 279.529-7.26 195.61 293.38 262.283 477.08 278.417 294.79 25.922 284.44 248.988 436.55 287.676 212.44 53.871 225.77-276.566 356.58-335.762 209.68-94.887 260-387.818 199.86-575.881-69.13-216.224-285.34-173.462-491.35-290.408-146.43-83.161-225.99-330.561-336.82-339.219z" stroke="#7776D1" stroke-width=".392" stroke-miterlimit="10" stroke-linecap="round" stroke-linejoin="round"/><path opacity=".024" d="M1745.14-856.068c-309.41-27.632-210.59 528.34-355.45 712.471-67.17 85.259-286.81 145.69-294.65 276.778-11.79 197.232 303.69 260.749 487.72 275.12 298.31 23.294 285.57 261.419 437.86 299.931 214.02 54.03 224.72-282.879 357.58-341.987 213.89-94.552 264.9-393.495 205.85-582.211-67.77-218.816-296.34-168.736-504.12-285.647-147.64-83.09-223.76-344.544-334.79-354.455z" stroke="#7776D1" stroke-width=".376" stroke-miterlimit="10" stroke-linecap="round" stroke-linejoin="round"/><path d="M1191.87 814.572c-99.2-86.141-311.326 198.328-415.581 255.388-137.234 75.1-272.052-37.91-358.401 39.66-51.378 46.15-117.545 195.52 36.362 386.53 105.313 130.68-106.512 303.21 61.549 407.04 160.147 98.94 240.96-235.73 385.561-190.11 150.75 47.54 271.19-18.01 317.03-93.32 54.06-88.82 90.26-173.15-33.86-329.01-97.89-122.94 143.57-357.874 7.34-476.178z" stroke="#393878" stroke-miterlimit="10" stroke-linecap="round" stroke-linejoin="round"/><path opacity=".976" d="M775.037 1058.29c-141.005 73.51-270.519-23.76-358.33 56.48-51.766 47.13-120.771 193.46 28.096 383.78 103.057 131.77-96.624 302.77 72.194 403.74 163.249 97.63 242.071-223.3 386.866-177.87 152.337 47.71 269.727-24.83 318.037-99.55 57.69-89.21 94.32-178.4-27.87-335.34-97.4-125.11 132.57-353.11-5.44-471.379-100.4-86.07-308.733 185.489-413.553 240.139z" stroke="#393878" stroke-width=".984" stroke-miterlimit="10" stroke-linecap="round" stroke-linejoin="round"/><path opacity=".951" d="M773.786 1046.6c-144.848 71.91-268.985-9.6-358.242 73.3-52.154 48.1-124.014 191.45 19.812 381.04 100.818 132.93-86.701 302.28 82.84 400.45 166.369 96.31 243.181-210.88 388.17-165.62 153.924 47.88 268.294-31.63 319.064-105.75 61.35-89.58 98.36-183.67-21.88-341.67-96.89-127.31 121.57-348.385-18.24-466.619-101.61-86-306.193 172.58-411.524 224.869z" stroke="#393878" stroke-width=".969" stroke-miterlimit="10" stroke-linecap="round" stroke-linejoin="round"/><path opacity=".927" d="M772.534 1034.92c-148.76 70.29-267.24 4.78-358.171 90.13-52.436 49.21-127.275 189.49 11.545 378.29 98.598 134.09-76.742 301.77 93.504 397.15 169.524 94.97 244.292-198.45 389.474-153.36 155.494 48.03 266.904-38.44 320.064-111.98 65.06-89.96 102.44-188.98-15.88-348-96.39-129.53 110.57-343.659-31.02-461.857-102.83-85.911-303.726 159.655-409.516 209.627z" stroke="#393878" stroke-width=".953" stroke-miterlimit="10" stroke-linecap="round" stroke-linejoin="round"/><path opacity=".902" d="M771.283 1023.25c-152.726 68.63-265.654 18.99-358.101 106.93-52.806 50.22-130.588 187.62 3.261 375.56 96.36 135.29-66.748 301.2 104.15 393.85 172.732 93.62 245.42-186.02 390.779-141.11 157.078 48.2 265.548-45.24 321.088-118.18 68.81-90.35 106.53-194.3-9.89-354.33-95.87-131.79 99.57-338.934-43.82-457.097-104.02-85.859-301.29 146.659-407.467 194.377z" stroke="#393878" stroke-width=".938" stroke-miterlimit="10" stroke-linecap="round" stroke-linejoin="round"/><path opacity=".878" d="M770.031 1011.57c-156.762 66.94-264.05 33.21-358.03 123.76-53.159 51.22-133.919 185.8-5.005 372.81 94.121 136.54-56.702 300.62 114.813 390.55 175.957 92.24 246.53-173.59 392.101-128.87 158.67 48.35 264.21-52.03 322.09-124.4 72.58-90.73 110.64-199.63-3.89-360.66-95.34-134.06 88.56-334.215-56.6-452.343-105.26-85.753-298.931 133.663-405.479 179.153z" stroke="#393878" stroke-width=".922" stroke-miterlimit="10" stroke-linecap="round" stroke-linejoin="round"/><path opacity=".854" d="M768.78 999.901c-160.834 65.229-262.464 47.419-357.959 140.579-53.53 52.23-137.304 184.04-13.29 370.07 91.882 137.83-46.638 299.99 125.477 387.26 179.2 90.85 247.64-161.16 393.405-116.61 160.257 48.52 262.907-58.83 323.117-130.62 76.37-91.09 114.76-205.01 2.09-366.99-94.8-136.31 77.57-329.483-69.39-447.576-106.46-85.699-296.586 120.544-403.45 163.887z" stroke="#393878" stroke-width=".906" stroke-miterlimit="10" stroke-linecap="round" stroke-linejoin="round"/><path opacity=".829" d="M767.529 988.228c-164.977 63.462-260.878 61.612-357.889 157.402-53.9 53.23-140.724 182.33-21.557 367.32 89.627 139.15-36.538 299.33 136.123 383.94 182.496 89.44 248.751-148.72 394.709-104.36 161.825 48.69 261.635-65.59 324.135-136.83 80.22-91.45 118.9-210.39 8.09-373.33-94.26-138.6 66.57-324.754-82.17-442.811C1061.28 753.965 874.675 947 767.529 988.228z" stroke="#393878" stroke-width=".891" stroke-miterlimit="10" stroke-linecap="round" stroke-linejoin="round"/><path opacity=".805" d="M766.26 976.554c-169.136 61.666-259.309 75.806-357.801 174.216-54.27 54.23-144.196 180.71-29.841 364.58 87.388 140.51-26.403 298.63 146.769 380.66 185.792 87.99 249.879-136.29 396.014-92.1 163.409 48.84 260.379-72.35 325.139-143.06 84.08-91.79 123.08-215.79 14.08-379.66-93.69-140.89 55.58-320.03-94.96-438.052-108.86-85.523-291.99 94.252-399.4 133.416z" stroke="#393878" stroke-width=".875" stroke-miterlimit="10" stroke-linecap="round" stroke-linejoin="round"/><path opacity=".78" d="M765.008 964.863c-173.366 59.817-257.722 89.987-357.73 191.047-54.657 55.22-147.703 179.12-38.107 361.84 85.115 141.91-16.251 297.88 157.433 377.34 189.123 86.53 250.989-123.87 397.317-79.86 164.989 49 259.149-79.09 326.159-149.27 87.97-92.12 127.26-221.2 20.08-385.98-93.13-143.21 44.57-315.311-107.75-433.297-110.1-85.436-289.78 81.044-397.402 118.18z" stroke="#393878" stroke-width=".86" stroke-miterlimit="10" stroke-linecap="round" stroke-linejoin="round"/><path opacity=".756" d="M763.757 953.19c-177.614 57.93-256.154 104.18-357.66 207.87-55.027 56.21-151.263 177.6-46.391 359.09 82.841 143.34-6.081 297.12 168.096 374.06 192.49 85.03 252.1-111.44 398.64-67.61 166.578 49.17 257.938-85.82 327.168-155.49 91.88-92.44 131.45-226.63 26.07-392.31-92.55-145.52 33.57-310.569-120.53-428.538-111.32-85.364-287.577 67.766-395.393 102.928z" stroke="#393878" stroke-width=".844" stroke-miterlimit="10" stroke-linecap="round" stroke-linejoin="round"/><path opacity=".732" d="M762.506 941.516C580.609 997.503 507.92 1059.87 404.916 1166.2c-55.415 57.21-154.859 176.16-54.657 356.36 80.532 144.83 4.124 296.32 178.742 370.75 195.874 83.5 253.228-99.01 399.944-55.35 168.145 49.34 256.735-92.54 328.185-161.7 95.82-92.74 135.67-232.08 32.07-398.65-91.96-147.84 22.57-305.834-133.32-423.768-112.54-85.294-285.382 54.453-393.374 87.674z" stroke="#393878" stroke-width=".829" stroke-miterlimit="10" stroke-linecap="round" stroke-linejoin="round"/><path opacity=".707" d="M761.254 929.843C575.021 983.819 508.22 1062.38 403.735 1171.34c-55.803 58.19-158.525 174.76-62.941 353.6 78.222 146.36 14.365 295.49 189.387 367.45 199.276 81.95 254.251-86.28 401.249-43.09 169.63 49.83 255.55-99.26 329.19-167.91 99.77-93.02 139.9-237.54 38.06-404.98-91.36-150.18 11.6-301.108-146.1-419.006-113.72-85.206-283.193 41.104-391.326 72.439z" stroke="#393878" stroke-width=".813" stroke-miterlimit="10" stroke-linecap="round" stroke-linejoin="round"/><path opacity=".683" d="M760.003 918.169C569.434 970.1 508.537 1064.88 402.554 1176.48c-56.19 59.18-162.244 173.41-71.207 350.86 75.878 147.91 24.605 294.61 200.051 364.15 202.695 80.36 255.36-73.85 402.552-30.85 171.22 50 254.39-105.95 330.22-174.14 103.72-93.28 144.14-243.01 44.04-411.3-90.73-152.55.6-296.389-158.89-414.234-114.94-85.118-281.061 27.702-389.317 57.203z" stroke="#393878" stroke-width=".797" stroke-miterlimit="10" stroke-linecap="round" stroke-linejoin="round"/><path opacity=".658" d="M758.751 906.496c-194.957 49.815-249.914 160.874-357.36 275.134-56.579 60.17-166.034 172.13-79.492 348.13 73.517 149.51 34.864 293.7 210.697 360.85 206.15 78.74 256.471-61.41 403.857-18.6 172.797 50.18 253.227-112.63 331.217-180.36 107.71-93.53 148.41-248.49 50.04-417.63-90.1-154.91-10.4-291.664-171.67-409.475-116.15-85.064-278.926 14.248-387.289 41.951z" stroke="#393878" stroke-width=".782" stroke-miterlimit="10" stroke-linecap="round" stroke-linejoin="round"/><path opacity=".634" d="M757.482 894.822c-199.346 47.647-248.363 175.028-357.29 291.958-56.966 61.14-169.858 170.87-87.758 345.38 71.12 151.13 45.157 292.77 221.361 357.57 209.604 77.08 257.581-48.98 405.178-6.35 174.367 50.37 252.087-119.29 332.247-186.56 111.71-93.76 152.69-254 56.03-423.97-89.47-157.29-21.42-286.95-184.49-404.725-117.35-84.994-276.792.776-385.278 26.697z" stroke="#393878" stroke-width=".766" stroke-miterlimit="10" stroke-linecap="round" stroke-linejoin="round"/><path opacity=".61" d="M756.231 883.149c-203.771 45.407-246.812 189.191-357.22 308.781-57.353 62.13-173.771 169.69-96.042 342.64 68.67 152.82 55.451 291.79 232.007 354.26 213.076 75.4 258.709-36.53 406.483 5.91 175.961 50.54 250.951-125.94 333.251-192.79 115.71-93.97 156.99-259.51 62.02-430.3-88.8-159.67-32.39-282.205-197.25-399.945-118.56-84.924-274.675-12.749-383.249 11.444z" stroke="#393878" stroke-width=".751" stroke-miterlimit="10" stroke-linecap="round" stroke-linejoin="round"/><path opacity=".585" d="M754.979 871.458c-208.212 43.114-245.278 203.352-357.148 325.602-57.742 63.1-177.72 168.55-104.309 339.89 66.202 154.53 65.761 290.78 242.67 350.96 216.567 73.68 259.82-24.1 407.787 18.15 177.521 50.7 249.831-132.59 334.271-199 119.75-94.18 161.31-265.03 68.02-436.62-88.11-162.07-43.4-277.486-210.05-395.191-119.78-84.818-272.596-26.274-381.241-3.791z" stroke="#393878" stroke-width=".735" stroke-miterlimit="10" stroke-linecap="round" stroke-linejoin="round"/><path opacity=".561" d="M753.728 859.784C541.074 900.536 510 1077.3 396.65 1202.21c-58.147 64.07-181.756 167.45-112.593 337.16 63.681 156.27 76.072 289.75 253.316 347.66 220.074 71.91 260.93-11.67 409.091 30.4 179.116 50.88 248.716-139.23 335.276-205.22 123.78-94.35 165.65-270.55 74.01-442.95-87.42-164.47-54.39-272.762-222.82-390.431-120.97-84.748-270.487-39.87-379.202-19.045z" stroke="#393878" stroke-width=".719" stroke-miterlimit="10" stroke-linecap="round" stroke-linejoin="round"/><path opacity=".537" d="M752.476 848.111c-217.113 38.335-242.194 231.669-357.007 359.249-58.535 65.05-185.845 166.37-120.86 334.41 61.126 158.03 86.401 288.69 263.98 344.36 223.599 70.12 262.041.74 410.396 42.66 180.695 51.03 247.585-145.85 336.295-211.43 127.84-94.51 170-276.09 80.01-449.29-86.72-166.88-65.4-268.03-235.62-385.662-122.2-84.694-268.408-53.5-377.194-34.297z" stroke="#393878" stroke-width=".704" stroke-miterlimit="10" stroke-linecap="round" stroke-linejoin="round"/><path opacity=".512" d="M751.225 836.437c-221.59 35.85-240.661 245.813-356.92 376.053-58.94 66.02-190.004 165.35-129.143 331.66 58.5 159.83 96.747 287.6 274.625 341.07 227.125 68.27 263.169 13.17 411.718 54.91 182.285 51.21 246.475-152.46 337.305-217.65 131.89-94.66 174.35-281.65 85.99-455.62-85.99-169.3-76.39-263.29-248.4-380.907-123.41-84.589-266.337-67.114-375.175-49.516z" stroke="#393878" stroke-width=".688" stroke-miterlimit="10" stroke-linecap="round" stroke-linejoin="round"/><path opacity=".488" d="M749.974 824.764c-226.05 33.292-239.128 259.976-356.85 392.876-59.328 66.99-194.234 164.37-137.409 328.92 55.82 161.69 107.093 286.48 285.289 337.78 230.667 66.4 264.279 25.6 413.022 67.14 183.874 51.37 245.384-159.05 338.324-223.87 135.95-94.8 178.74-287.2 91.99-461.95-85.26-171.72-87.39-258.56-261.2-376.145-124.645-84.501-264.275-80.78-373.166-64.751z" stroke="#393878" stroke-width=".673" stroke-miterlimit="10" stroke-linecap="round" stroke-linejoin="round"/><path opacity=".463" d="M748.704 813.09c-230.526 30.665-237.593 274.12-356.778 409.7-59.734 67.96-198.536 163.39-145.694 326.17 53.089 163.54 117.44 285.33 295.953 334.48 234.209 64.48 265.389 38.01 414.326 79.4 185.439 51.53 244.269-165.65 339.349-230.08 140.02-94.91 183.15-292.78 97.98-468.28-84.5-174.15-98.39-253.84-273.97-371.368-125.852-84.448-262.186-94.517-371.166-80.022z" stroke="#393878" stroke-width=".657" stroke-miterlimit="10" stroke-linecap="round" stroke-linejoin="round"/><path opacity=".439" d="M747.453 801.417C512.45 829.384 511.375 1089.67 390.745 1227.94c-60.139 68.93-202.907 162.44-153.96 323.44 50.286 165.42 127.804 284.15 306.598 331.17 237.77 62.55 266.518 50.45 415.631 91.66 187.026 51.69 243.186-172.22 340.356-236.3 144.09-95.01 187.55-298.33 103.97-474.6-83.72-176.58-109.39-249.11-286.75-366.601-127.066-84.394-260.105-108.27-369.137-95.292z" stroke="#393878" stroke-width=".641" stroke-miterlimit="10" stroke-linecap="round" stroke-linejoin="round"/><path opacity=".415" d="M746.202 789.743C506.704 814.96 511.657 1092.13 389.564 1233.09c-60.544 69.9-207.331 161.52-162.244 320.68 47.413 167.33 138.167 282.95 317.244 327.89 241.331 60.55 267.628 62.86 416.935 103.91 188.611 51.84 242.091-178.81 341.371-242.52 148.18-95.09 191.98-303.89 109.97-480.92-82.95-179.03-120.38-244.38-299.55-361.841-128.243-84.342-258.003-122.043-367.088-110.546z" stroke="#393878" stroke-width=".626" stroke-miterlimit="10" stroke-linecap="round" stroke-linejoin="round"/><path opacity=".39" d="M744.95 778.052c-243.956 22.395-233.029 316.528-356.567 460.168-60.949 70.87-211.843 160.63-170.511 317.94 44.452 169.24 148.532 281.71 327.908 324.58 244.891 58.52 268.756 75.29 418.24 116.15 190.2 52 241-185.36 342.38-248.74 152.25-95.17 196.42-309.49 115.96-487.27-82.14-181.49-131.38-239.66-312.33-357.082-129.46-84.201-255.924-135.762-365.08-125.746z" stroke="#393878" stroke-width=".61" stroke-miterlimit="10" stroke-linecap="round" stroke-linejoin="round"/><path opacity=".366" d="M743.699 766.379C495.265 785.882 512.186 1097.05 387.22 1243.37c-61.355 71.82-216.408 159.72-178.795 315.2 41.42 171.19 158.895 280.46 338.554 321.29 248.469 56.46 269.954 87.41 419.561 128.4 191.89 51.78 239.92-191.92 343.4-254.94 156.34-95.22 200.88-315.06 121.95-493.6-81.32-183.96-142.38-234.94-325.12-352.325-130.695-84.148-253.845-149.586-363.071-141.016z" stroke="#393878" stroke-width=".595" stroke-miterlimit="10" stroke-linecap="round" stroke-linejoin="round"/><path opacity=".342" d="M742.447 754.705C489.554 771.246 512.45 1099.5 386.039 1248.52c-61.76 72.79-221.061 158.84-187.079 312.45 38.301 173.13 169.259 279.19 349.217 317.99 252.047 54.34 271.065 99.84 420.866 140.66 193.457 51.93 238.827-198.47 344.407-261.17 160.44-95.26 205.34-320.65 127.94-499.92-80.48-186.4-153.38-230.2-337.9-347.555-131.891-84.078-251.746-163.411-361.043-156.27z" stroke="#393878" stroke-width=".579" stroke-miterlimit="10" stroke-linecap="round" stroke-linejoin="round"/><path opacity=".317" d="M741.196 743.032c-257.335 13.525-228.481 358.938-356.338 510.618-62.183 73.76-225.767 157.96-195.345 309.72 35.092 175.08 179.623 277.89 359.863 314.69 255.607 52.19 272.175 112.27 422.17 152.9 195.044 52.09 237.734-205.01 345.424-267.38 164.54-95.29 209.84-326.24 133.94-506.24-79.63-188.88-164.36-225.49-350.7-342.803-133.106-83.989-249.647-177.254-359.014-171.505z" stroke="#393878" stroke-width=".564" stroke-miterlimit="10" stroke-linecap="round" stroke-linejoin="round"/><path opacity=".293" d="M739.945 731.358C478.168 741.78 512.961 1104.42 383.677 1258.8c-62.571 74.73-230.543 157.08-203.611 306.97 31.796 177.04 189.986 276.56 370.526 311.39 259.185 50.01 273.304 124.7 423.474 165.16 196.634 52.24 236.644-211.56 346.434-273.61 168.62-95.31 214.33-331.83 139.93-512.57-78.75-191.35-175.38-220.74-363.48-338.041-134.323-83.901-247.55-191.096-357.005-186.741z" stroke="#393878" stroke-width=".548" stroke-miterlimit="10" stroke-linecap="round" stroke-linejoin="round"/><path opacity=".268" d="M738.675 719.685c-266.2 7.265-225.467 387.185-356.179 544.265-62.994 75.68-235.373 156.18-211.896 304.23 28.378 179 200.351 275.21 381.173 308.1 262.763 47.77 274.414 137.13 424.778 177.41 198.219 52.41 235.569-218.08 347.459-279.81 172.73-95.31 218.84-337.42 145.92-518.91-77.87-193.83-186.37-216.01-376.27-333.274-135.528-83.866-245.424-205.009-354.985-202.011z" stroke="#393878" stroke-width=".532" stroke-miterlimit="10" stroke-linecap="round" stroke-linejoin="round"/><path opacity=".244" d="M737.424 708.011c-270.607 4.056-223.969 401.309-356.126 561.089-63.4 76.65-240.273 155.26-220.163 301.48 24.888 180.96 210.715 273.85 391.836 304.8 266.342 45.49 275.525 149.55 426.101 189.67 199.788 52.58 234.478-224.6 348.458-286.04 176.84-95.31 223.37-343.03 151.92-525.25-76.97-196.3-197.36-211.29-389.05-328.52-136.744-83.759-243.309-218.869-352.976-217.229z" stroke="#393878" stroke-width=".517" stroke-miterlimit="10" stroke-linecap="round" stroke-linejoin="round"/><path opacity=".22" d="M736.173 696.338c-274.996.776-222.471 415.452-356.039 577.912-63.822 77.6-245.243 154.34-228.446 298.73 21.274 182.88 221.061 272.47 402.482 301.5 269.919 43.18 276.635 161.98 427.405 201.9 201.375 52.75 233.385-231.1 349.485-292.24 180.94-95.29 227.9-348.62 157.9-531.57-76.05-198.78-208.35-206.56-401.84-323.75-137.941-83.689-241.175-232.799-350.947-232.482z" stroke="#393878" stroke-width=".501" stroke-miterlimit="10" stroke-linecap="round" stroke-linejoin="round"/><path opacity=".195" d="M734.921 684.647c-279.384-2.575-220.973 429.553-355.968 594.733-64.227 78.57-250.249 153.39-236.712 296 17.537 184.8 231.425 271.06 413.145 298.2 273.48 40.86 277.745 174.41 428.692 214.18 202.962 52.9 232.302-237.62 350.482-298.47 185.04-95.26 232.45-354.23 163.9-537.9-75.1-201.27-219.35-201.83-414.62-318.99-139.156-83.619-239.023-246.73-348.919-247.753z" stroke="#393878" stroke-width=".485" stroke-miterlimit="10" stroke-linecap="round" stroke-linejoin="round"/><path opacity=".171" d="M733.67 672.973c-283.738-5.977-219.475 443.677-355.897 611.557-64.634 79.52-255.326 152.42-244.997 293.24 13.713 186.71 241.771 269.64 423.791 294.91 277.058 38.44 278.873 186.85 430.013 226.42 204.55 53.06 231.21-244.12 351.51-304.7 189.14-95.22 237.01-359.81 169.89-544.22-74.15-203.76-230.35-197.11-427.42-314.218-140.353-83.531-236.871-260.661-346.89-262.989z" stroke="#393878" stroke-width=".47" stroke-miterlimit="10" stroke-linecap="round" stroke-linejoin="round"/><path opacity=".146" d="M732.418 661.3c-288.073-9.434-218.276 457.58-355.826 628.38-65.198 80.37-260.472 151.42-253.281 290.49 9.747 188.58 252.1 268.21 434.455 291.61 280.618 36.03 279.983 199.28 431.317 238.67 206.117 53.24 230.117-250.63 352.517-310.9 193.24-95.17 241.59-365.42 175.88-550.56-73.18-206.24-241.35-192.38-440.2-309.449C935.713 856.064 842.579 664.915 732.418 661.3z" stroke="#393878" stroke-width=".454" stroke-miterlimit="10" stroke-linecap="round" stroke-linejoin="round"/><path opacity=".122" d="M731.167 649.626c-292.392-12.96-216.743 471.714-355.756 645.184-65.585 81.36-265.637 150.38-261.547 287.76 5.675 190.39 262.428 266.75 445.1 288.31 284.161 33.56 281.094 211.69 432.64 250.93 207.696 53.39 229.026-257.12 353.536-317.13 197.35-95.11 246.18-371.01 181.88-556.88-72.2-208.75-252.35-187.66-452.98-304.697-142.804-83.389-232.572-288.574-342.873-293.477z" stroke="#393878" stroke-width=".439" stroke-miterlimit="10" stroke-linecap="round" stroke-linejoin="round"/><path opacity=".098" d="M729.898 637.953c-296.675-16.558-215.209 485.877-355.686 662.007-65.99 82.33-270.871 149.28-269.813 285.01 1.498 192.19 272.757 265.28 455.764 285.01 287.704 31.04 282.222 224.13 433.944 263.17 209.283 53.55 227.953-263.61 354.553-323.33 201.47-95.05 250.78-376.62 187.88-563.22-71.19-211.22-263.35-182.92-465.78-299.917-144.001-83.319-230.384-302.576-340.862-308.73z" stroke="#393878" stroke-width=".423" stroke-miterlimit="10" stroke-linecap="round" stroke-linejoin="round"/><path opacity=".073" d="M728.646 626.279c-300.94-20.19-213.658 500.041-355.597 678.821-66.378 83.32-276.141 148.15-278.098 282.28-2.82 193.92 283.086 263.79 466.41 281.72 291.247 28.5 283.333 236.56 435.248 275.42 210.871 53.71 226.861-270.08 355.561-329.54 205.57-94.99 255.38-382.23 193.88-569.57-70.16-213.72-274.34-178.18-478.55-295.165-145.236-83.231-228.2-316.542-338.854-323.966z" stroke="#393878" stroke-width=".408" stroke-miterlimit="10" stroke-linecap="round" stroke-linejoin="round"/><path opacity=".049" d="M727.395 614.606C422.207 590.73 515.27 1128.8 371.868 1310.25c-66.784 84.29-281.464 146.95-286.364 279.53-7.262 195.61 293.379 262.29 477.074 278.42 294.789 25.92 284.443 248.99 436.552 287.68 212.44 53.87 225.77-276.57 356.58-335.77 209.68-94.88 260-387.81 199.86-575.88-69.13-216.22-285.34-173.46-491.35-290.405-146.432-83.161-225.995-330.561-336.825-339.219z" stroke="#393878" stroke-width=".392" stroke-miterlimit="10" stroke-linecap="round" stroke-linejoin="round"/><path opacity=".024" d="M726.144 602.932C416.725 575.3 515.552 1131.27 370.687 1315.4c-67.171 85.26-286.805 145.69-294.648 276.78-11.792 197.23 303.69 260.75 487.72 275.12 298.314 23.3 285.57 261.42 437.861 299.93 214.02 54.03 224.72-282.88 357.58-341.99 213.89-94.55 264.9-393.49 205.85-582.21-67.77-218.81-296.34-168.73-504.12-285.643-147.637-83.09-223.762-344.545-334.786-354.455z" stroke="#393878" stroke-width=".376" stroke-miterlimit="10" stroke-linecap="round" stroke-linejoin="round"/><path opacity=".951" d="M-510.214-23.405c-144.848 71.91-268.986-9.592-358.242 73.303-52.154 48.105-124.014 191.449 19.811 381.046 100.819 132.923-86.7 302.276 82.841 400.443 166.368 96.315 243.181-210.881 388.17-165.615 153.925 47.875 268.298-31.635 319.06-105.749C2.78 470.444 39.793 376.35-80.448 218.353-177.336 91.038 41.116-130.035-98.69-248.269c-101.611-86-306.192 172.58-411.523 224.864z" stroke="#7776D1" stroke-width=".969" stroke-miterlimit="10" stroke-linecap="round" stroke-linejoin="round"/><path opacity=".927" d="M-511.466-35.078c-148.76 70.288-267.24 4.779-358.171 90.125-52.436 49.216-127.275 189.492 11.545 378.295 98.598 134.087-76.742 301.765 93.504 397.146 169.524 94.975 244.292-198.449 389.474-153.36 155.494 48.034 266.906-38.442 320.064-111.974 65.057-89.967 102.44-188.98-15.88-348-96.395-129.537 110.566-343.663-31.021-461.861-102.828-85.911-303.726 159.655-409.515 209.629z" stroke="#7776D1" stroke-width=".953" stroke-miterlimit="10" stroke-linecap="round" stroke-linejoin="round"/><path opacity=".902" d="M-512.717-46.752C-665.443 21.878-778.371-27.76-870.818 60.18c-52.806 50.221-130.592 187.622 3.261 375.562 96.36 135.285-66.748 301.2 104.15 393.848 172.732 93.617 245.42-186.018 390.779-141.105 157.08 48.193 265.548-45.248 321.086-118.181 68.81-90.355 106.53-194.305-9.888-354.331-95.866-131.794 99.568-338.936-43.817-457.099-104.027-85.859-301.293 146.659-407.47 194.375z" stroke="#7776D1" stroke-width=".938" stroke-miterlimit="10" stroke-linecap="round" stroke-linejoin="round"/><path opacity=".878" d="M-513.968-58.425c-156.763 66.937-264.05 33.204-358.03 123.753-53.159 51.226-133.922 185.806-5.006 372.811 94.121 136.537-56.702 300.618 114.814 390.55 175.956 92.242 246.53-173.586 392.1-128.867 158.666 48.352 264.209-52.037 322.091-124.405 72.583-90.725 110.637-199.631-3.895-360.662-95.337-134.05 88.569-334.21-56.596-452.338-105.261-85.753-298.931 133.663-405.478 179.158z" stroke="#7776D1" stroke-width=".922" stroke-miterlimit="10" stroke-linecap="round" stroke-linejoin="round"/><path opacity=".854" d="M-515.22-70.099C-676.054-4.872-777.684-22.682-873.179 70.477c-53.53 52.231-137.301 184.042-13.29 370.078 91.882 137.824-46.638 299.983 125.477 387.252 179.2 90.849 247.64-161.154 393.405-116.611 160.252 48.528 262.904-58.826 323.113-130.613 76.372-91.095 114.76-205.008 2.098-366.991-94.809-136.308 77.57-329.485-69.393-447.578-106.459-85.699-296.587 120.544-403.451 163.887z" stroke="#7776D1" stroke-width=".906" stroke-miterlimit="10" stroke-linecap="round" stroke-linejoin="round"/><path opacity=".829" d="M-516.471-81.772C-681.448-18.31-777.349-20.16-874.36 75.626c-53.9 53.236-140.72 182.332-21.557 367.327C-806.29 582.1-932.455 742.284-759.794 826.89c182.496 89.438 248.751-148.722 394.709-104.356 161.822 48.687 261.636-65.597 324.136-136.837 80.215-91.448 118.903-210.387 8.09-373.322-94.262-138.6 66.573-324.759-82.17-442.816C-222.722-316.035-409.325-123-516.471-81.772z" stroke="#7776D1" stroke-width=".891" stroke-miterlimit="10" stroke-linecap="round" stroke-linejoin="round"/><path opacity=".805" d="M-517.74-93.446C-686.876-31.78-777.049-17.639-875.541 80.774c-54.27 54.224-144.199 180.711-29.84 364.577 87.388 140.505-26.404 298.626 146.768 380.658 185.793 87.992 249.879-136.291 396.014-92.101 163.407 48.845 260.384-72.351 325.14-143.062 84.075-91.783 123.08-215.783 14.083-379.653C-117.074 70.3 32.198-108.84-118.343-226.862-227.199-312.385-410.329-132.61-517.74-93.446z" stroke="#7776D1" stroke-width=".875" stroke-miterlimit="10" stroke-linecap="round" stroke-linejoin="round"/><path opacity=".78" d="M-518.992-105.137c-173.366 59.814-257.722 89.985-357.73 191.043-54.657 55.229-147.708 179.123-38.107 361.843 85.115 141.916-16.251 297.885 157.433 377.343 189.123 86.528 250.989-123.877 397.317-79.863 164.994 49.004 259.15-79.087 326.163-149.269 87.97-92.118 127.257-221.197 20.076-385.983-93.134-143.203 44.575-315.308-107.746-433.294-110.108-85.436-289.784 81.044-397.406 118.18z" stroke="#7776D1" stroke-width=".86" stroke-miterlimit="10" stroke-linecap="round" stroke-linejoin="round"/><path opacity=".756" d="M-520.243-116.81C-697.857-58.883-776.397-12.63-877.903 91.055c-55.028 56.217-151.267 177.607-46.391 359.092 82.841 143.344-6.081 297.128 168.096 374.063 192.49 85.03 252.1-111.444 398.639-67.607 166.581 49.163 257.934-85.823 327.168-155.494 91.883-92.435 131.452-226.628 26.068-392.314-92.552-145.512 33.577-310.564-120.524-428.533-111.324-85.364-287.58 67.766-395.396 102.928z" stroke="#7776D1" stroke-width=".844" stroke-miterlimit="10" stroke-linecap="round" stroke-linejoin="round"/><path opacity=".732" d="M-521.494-128.484C-703.391-72.497-776.08-10.126-879.084 96.205c-55.415 57.203-154.856 176.16-54.657 356.358 80.532 144.826 4.124 296.316 178.742 370.748 195.874 83.495 253.228-99.013 399.944-55.352 168.148 49.339 256.735-92.542 328.19-161.701 95.813-92.735 135.664-232.076 32.06-398.644-91.952-147.84 22.579-305.838-133.32-423.772-112.54-85.294-285.377 54.453-393.369 87.674z" stroke="#7776D1" stroke-width=".829" stroke-miterlimit="10" stroke-linecap="round" stroke-linejoin="round"/><path opacity=".707" d="M-522.746-140.157C-708.979-86.181-775.78-7.623-880.265 101.336c-55.803 58.191-158.525 174.767-62.941 353.608 78.222 146.359 14.365 295.487 189.387 367.45 199.276 81.943 254.251-86.282 401.249-43.097 169.629 49.833 255.554-99.26 329.194-167.908 99.761-93.017 139.895-237.543 38.054-404.974C-76.676 56.229 26.276-94.698-131.421-212.596c-113.721-85.206-283.192 41.104-391.325 72.439z" stroke="#7776D1" stroke-width=".813" stroke-miterlimit="10" stroke-linecap="round" stroke-linejoin="round"/><path opacity=".683" d="M-523.998-151.831C-714.566-99.9-775.463-5.119-881.446 106.485c-56.191 59.178-162.244 173.409-71.208 350.857 75.879 147.911 24.606 294.605 200.052 364.152 202.695 80.357 255.36-73.849 402.552-30.858 171.216 50.009 254.391-105.943 330.217-174.133 103.727-93.282 144.142-243.009 44.046-411.305-90.737-152.549.6-296.386-158.895-414.232-114.937-85.118-281.059 27.702-389.316 57.203z" stroke="#7776D1" stroke-width=".797" stroke-miterlimit="10" stroke-linecap="round" stroke-linejoin="round"/><path opacity=".658" d="M-525.249-163.504c-194.957 49.815-249.914 160.872-357.36 275.138-56.579 60.166-166.031 172.122-79.492 348.124 73.517 149.516 34.864 293.706 210.697 360.855 206.15 78.734 256.471-61.418 403.857-18.603 172.802 50.185 253.228-112.627 331.221-180.358 107.71-93.529 148.408-248.493 50.04-417.635C-56.39 49.105 23.314-87.644-137.96-205.455c-116.153-85.064-278.926 14.248-387.289 41.951z" stroke="#7776D1" stroke-width=".782" stroke-miterlimit="10" stroke-linecap="round" stroke-linejoin="round"/><path opacity=".634" d="M-526.518-175.178C-725.864-127.531-774.881-.146-883.808 116.783c-56.966 61.136-169.862 170.87-87.758 345.373 71.12 151.138 45.157 292.772 221.361 357.575 209.604 77.077 257.581-48.986 405.178-6.348 174.371 50.362 252.083-119.291 332.244-186.564C98.93 533.061 139.908 372.824 43.25 202.853-46.219 45.561 21.834-84.1-141.239-201.875c-117.351-84.994-276.793.776-385.279 26.697z" stroke="#7776D1" stroke-width=".766" stroke-miterlimit="10" stroke-linecap="round" stroke-linejoin="round"/><path opacity=".61" d="M-527.77-186.851C-731.54-141.444-774.582 2.341-884.989 121.932c-57.354 62.123-173.771 169.689-96.042 342.64 68.67 152.813 55.45 291.784 232.007 354.26 213.076 75.402 258.709-36.537 406.482 5.907C-166.585 875.277-91.587 698.8-9.293 631.95c115.712-93.969 156.992-259.514 62.024-430.296-88.798-159.673-32.396-282.21-197.248-399.949-118.568-84.924-274.679-12.749-383.253 11.444z" stroke="#7776D1" stroke-width=".751" stroke-miterlimit="10" stroke-linecap="round" stroke-linejoin="round"/><path opacity=".585" d="M-529.021-198.542C-737.233-155.428-774.299 4.809-886.169 127.063c-57.742 63.094-177.721 168.543-104.309 339.889 66.202 154.524 65.761 290.779 242.67 350.963 216.567 73.673 259.82-24.105 407.787 18.145C-162.495 886.757-90.195 703.472-5.75 637.064c119.749-94.181 161.31-265.034 68.017-436.627-88.11-162.071-43.394-277.483-210.045-395.188-119.784-84.818-272.598-26.274-381.243-3.791z" stroke="#7776D1" stroke-width=".735" stroke-miterlimit="10" stroke-linecap="round" stroke-linejoin="round"/><path opacity=".561" d="M-530.272-210.216C-742.926-169.464-774 7.295-887.351 132.212c-58.147 64.063-181.759 167.45-112.592 337.156 63.681 156.269 76.072 289.756 253.316 347.665 220.074 71.91 260.93-11.673 409.091 30.401C-158.424 898.307-88.82 708.198-2.26 642.213c123.785-94.358 165.645-270.553 74.01-442.957-87.424-164.47-54.393-272.758-222.824-390.427-120.965-84.748-270.483-39.87-379.198-19.045z" stroke="#7776D1" stroke-width=".719" stroke-miterlimit="10" stroke-linecap="round" stroke-linejoin="round"/><path opacity=".537" d="M-531.524-221.889c-217.112 38.335-242.194 231.67-357.007 359.25-58.535 65.051-185.849 166.374-120.859 334.405 61.125 158.033 86.401 288.699 263.979 344.368 223.599 70.111 262.041.741 410.396 42.656C-154.317 909.822-87.427 712.942 1.283 647.362c127.838-94.516 169.999-276.09 80.002-449.288C-5.433 31.189 15.895-69.957-154.334-187.592c-122.199-84.694-268.404-53.5-377.19-34.297z" stroke="#7776D1" stroke-width=".704" stroke-miterlimit="10" stroke-linecap="round" stroke-linejoin="round"/><path opacity=".512" d="M-532.775-233.563c-221.59 35.85-240.661 245.814-356.92 376.056-58.94 66.02-190.005 165.351-129.145 331.654 58.502 159.831 96.749 287.605 274.627 341.07 227.125 68.278 263.169 13.172 411.718 54.911C-150.21 921.336-86.017 717.668 4.808 652.476 136.7 557.818 179.16 370.831 90.803 196.857 4.808 27.557 14.413-66.431-157.595-184.047c-123.415-84.589-266.342-67.114-375.18-49.516z" stroke="#7776D1" stroke-width=".688" stroke-miterlimit="10" stroke-linecap="round" stroke-linejoin="round"/><path opacity=".488" d="M-534.026-245.236c-226.049 33.292-239.128 259.973-356.849 392.878-59.328 66.99-194.235 164.363-137.405 328.92 55.815 161.683 107.089 286.477 285.284 337.773 230.667 66.409 264.279 25.604 413.022 67.149C-146.103 932.851-84.589 722.429 8.351 657.607c135.946-94.798 178.741-287.199 91.988-461.949C15.084 23.942 12.951-62.904-160.856-180.485c-124.648-84.501-264.279-80.78-373.17-64.751z" stroke="#7776D1" stroke-width=".673" stroke-miterlimit="10" stroke-linecap="round" stroke-linejoin="round"/><path opacity=".463" d="M-535.296-256.91c-230.526 30.665-237.593 274.116-356.778 409.701-59.734 67.96-198.536 163.393-145.696 326.17 53.091 163.534 117.442 285.33 295.955 334.475 234.209 64.486 265.389 38.018 414.326 79.405C-142.05 944.366-83.215 727.19 11.858 662.756c140.018-94.904 183.148-292.771 97.981-468.279C25.341 20.327 11.452-59.36-164.135-176.888c-125.847-84.448-262.181-94.517-371.161-80.022z" stroke="#7776D1" stroke-width=".657" stroke-miterlimit="10" stroke-linecap="round" stroke-linejoin="round"/><path opacity=".439" d="M-536.547-268.583C-771.55-240.616-772.625 19.674-893.255 157.94c-60.139 68.93-202.905 162.441-153.965 323.437 50.291 165.421 127.808 284.148 306.603 331.177 237.77 62.547 266.518 50.45 415.631 91.66 187.025 51.684 243.18-172.228 340.351-236.309 144.09-95.01 187.555-298.326 103.974-474.592C35.617 16.73 9.954-55.797-167.413-173.291c-127.063-84.394-260.102-108.27-369.134-95.292z" stroke="#7776D1" stroke-width=".641" stroke-miterlimit="10" stroke-linecap="round" stroke-linejoin="round"/><path opacity=".415" d="M-537.798-280.257C-777.296-255.04-772.343 22.125-894.436 163.089c-60.544 69.9-207.334 161.524-162.244 320.686 47.41 167.326 138.167 282.95 317.244 327.88 241.331 60.554 267.628 62.864 416.935 103.915 188.612 51.843 242.088-178.805 341.374-242.515 148.179-95.099 191.978-303.899 109.966-480.923C45.893 13.097 8.456-52.253-170.709-169.711c-128.244-84.342-258.004-122.043-367.089-110.546z" stroke="#7776D1" stroke-width=".626" stroke-miterlimit="10" stroke-linecap="round" stroke-linejoin="round"/><path opacity=".39" d="M-539.05-291.948C-783.007-269.553-772.079 24.576-895.617 168.22c-60.95 70.87-211.843 160.625-170.513 317.935 44.45 169.248 148.534 281.716 327.91 324.583 244.891 58.526 268.756 75.296 418.239 116.153 190.199 52.002 240.996-185.365 342.379-248.74 152.25-95.169 196.42-309.489 115.959-487.271C56.221 9.394 6.975-48.78-173.97-166.202c-129.46-84.201-255.924-135.762-365.08-125.746z" stroke="#7776D1" stroke-width=".61" stroke-miterlimit="10" stroke-linecap="round" stroke-linejoin="round"/><path opacity=".366" d="M-540.301-303.621c-248.434 19.503-231.513 330.666-356.479 476.99-61.355 71.822-216.41 159.726-178.79 315.202 41.42 171.188 158.891 280.463 338.549 321.285 248.469 56.463 269.955 87.41 419.561 128.409 191.891 51.772 239.92-191.925 343.4-254.948 156.341-95.222 200.881-315.061 121.953-493.601C66.568 5.761 5.513-45.218-177.23-162.605c-130.694-84.148-253.845-149.586-363.071-141.016z" stroke="#7776D1" stroke-width=".595" stroke-miterlimit="10" stroke-linecap="round" stroke-linejoin="round"/><path opacity=".342" d="M-541.553-315.295C-794.446-298.754-771.55 29.496-897.961 178.518c-61.761 72.792-221.059 158.844-187.079 312.451 38.3 173.128 169.259 279.194 349.217 317.988 252.047 54.347 271.065 99.842 420.866 140.664C-121.498 1001.55-76.13 751.154 29.448 688.449c160.446-95.257 205.339-320.651 127.945-499.915C76.914 2.129 4.014-41.673-180.509-159.025c-131.893-84.077-251.747-163.411-361.044-156.27z" stroke="#7776D1" stroke-width=".579" stroke-miterlimit="10" stroke-linecap="round" stroke-linejoin="round"/><path opacity=".317" d="M-542.804-326.968C-800.138-313.443-771.285 31.965-899.142 183.65c-62.183 73.761-225.768 157.962-195.348 309.717 35.1 175.085 179.626 277.889 359.866 314.691 255.607 52.195 272.176 112.273 422.17 152.901C-117.408 1013.05-74.719 755.95 32.974 693.58c164.535-95.292 209.833-326.24 133.937-506.245C87.278-1.539 2.551-38.147-183.787-155.463c-133.109-83.989-249.65-177.254-359.017-171.505z" stroke="#7776D1" stroke-width=".564" stroke-miterlimit="10" stroke-linecap="round" stroke-linejoin="round"/><path opacity=".293" d="M-544.055-338.642C-805.832-328.22-771.039 34.416-900.323 188.799c-62.571 74.731-230.547 157.081-203.607 306.967 31.79 177.042 189.982 276.566 370.522 311.392 259.185 50.01 273.304 124.706 423.474 165.157 196.632 52.245 236.642-211.551 346.433-273.604 168.624-95.31 214.328-331.83 139.93-512.575C97.677-5.207 1.053-34.602-187.048-151.901-321.373-235.802-434.6-342.997-544.055-338.642z" stroke="#7776D1" stroke-width=".548" stroke-miterlimit="10" stroke-linecap="round" stroke-linejoin="round"/><path opacity=".268" d="M-545.325-350.315c-266.2 7.265-225.467 387.182-356.179 544.263-62.994 75.684-235.376 156.181-211.896 304.233 28.38 179 200.351 275.209 381.173 308.096 262.763 47.769 274.414 137.137 424.778 177.412C-109.231 1036.1-71.882 765.614 40.006 703.878c172.731-95.31 218.84-337.42 145.923-518.906C108.059-8.857-.445-31.04-190.344-148.304c-135.524-83.866-245.42-205.009-354.981-202.011z" stroke="#7776D1" stroke-width=".532" stroke-miterlimit="10" stroke-linecap="round" stroke-linejoin="round"/><path opacity=".244" d="M-546.576-361.989c-270.607 4.056-223.969 401.307-356.126 561.086-63.4 76.653-240.278 155.264-220.158 301.483 24.88 180.956 210.71 273.85 391.832 304.797 266.341 45.495 275.524 149.552 426.1 189.668 199.787 52.585 234.474-224.6 348.46-286.035C220.368 613.7 266.9 365.982 195.446 183.756 118.476-12.542-1.908-27.531-193.604-144.76c-136.74-83.759-243.305-218.869-352.972-217.229z" stroke="#7776D1" stroke-width=".517" stroke-miterlimit="10" stroke-linecap="round" stroke-linejoin="round"/><path opacity=".22" d="M-547.827-373.662c-274.996.776-222.471 415.449-356.039 577.908-63.822 77.606-245.244 154.347-228.444 298.732 21.27 182.878 221.059 272.475 402.48 301.5 269.919 43.185 276.635 161.983 427.405 201.902 201.373 52.75 233.381-231.103 349.481-292.239 180.945-95.293 227.9-348.618 157.909-531.567C128.91-16.21-3.388-23.986-196.883-141.18c-137.938-83.689-241.172-232.799-350.944-232.482z" stroke="#7776D1" stroke-width=".501" stroke-miterlimit="10" stroke-linecap="round" stroke-linejoin="round"/><path opacity=".195" d="M-549.079-385.353c-279.384-2.575-220.973 429.556-355.968 594.73-64.227 78.576-250.253 153.396-236.713 295.999 17.54 184.801 231.426 271.065 413.146 298.203 273.48 40.857 277.745 174.414 428.692 214.181 202.959 52.9 232.306-237.616 350.486-298.47 185.034-95.257 232.447-354.225 163.901-537.897C139.362-19.877-4.887-20.442-200.161-137.6c-139.155-83.619-239.022-246.73-348.918-247.753z" stroke="#7776D1" stroke-width=".485" stroke-miterlimit="10" stroke-linecap="round" stroke-linejoin="round"/><path opacity=".171" d="M-550.33-397.027c-283.738-5.977-219.475 443.68-355.897 611.553-64.634 79.528-255.323 152.426-244.993 293.248 13.71 186.705 241.767 269.636 423.787 294.905C-450.375 841.121-448.56 989.526-297.42 1029.1c204.546 53.06 231.214-244.125 351.509-304.696C243.23 629.182 291.1 364.589 223.983 180.176 149.831-23.581-6.367-16.934-203.44-134.038c-140.353-83.531-236.871-260.661-346.89-262.989z" stroke="#7776D1" stroke-width=".47" stroke-miterlimit="10" stroke-linecap="round" stroke-linejoin="round"/><path opacity=".146" d="M-551.582-408.7c-288.074-9.434-218.276 457.576-355.827 628.375-65.197 80.375-260.471 151.421-253.281 290.497 9.75 188.575 252.1 268.208 434.456 291.608 280.618 36.026 279.983 199.28 431.317 238.67 206.115 53.24 230.12-250.625 352.513-310.897 193.248-95.169 241.595-365.423 175.887-550.558C160.301-27.249-7.865-13.389-206.718-130.459-348.287-213.936-441.421-405.085-551.582-408.7z" stroke="#7776D1" stroke-width=".454" stroke-miterlimit="10" stroke-linecap="round" stroke-linejoin="round"/><path opacity=".122" d="M-552.833-420.374c-292.392-12.96-216.743 471.719-355.756 645.181-65.585 81.362-265.641 150.38-261.551 287.764 5.68 190.39 262.432 266.744 445.104 288.31 284.161 33.557 281.094 211.689 432.64 250.929 207.7 53.39 229.028-257.118 353.535-317.126 197.355-95.116 246.178-371.012 181.879-556.888C170.824-30.952-9.328-9.862-209.961-126.896c-142.803-83.39-232.571-288.575-342.872-293.478z" stroke="#7776D1" stroke-width=".439" stroke-miterlimit="10" stroke-linecap="round" stroke-linejoin="round"/><path opacity=".098" d="M-554.102-432.047c-296.675-16.558-215.209 485.878-355.686 662.003-65.99 82.331-270.872 149.286-269.812 285.013 1.5 192.189 272.756 265.281 455.763 285.013 287.704 31.035 282.222 224.128 433.944 263.168C-80.606 1116.7-61.941 799.541 64.664 739.816c201.462-95.046 250.778-376.62 187.872-563.22C181.346-34.62-10.809-6.318-213.239-123.317c-144.002-83.319-230.385-302.576-340.863-308.73z" stroke="#7776D1" stroke-width=".423" stroke-miterlimit="10" stroke-linecap="round" stroke-linejoin="round"/><path opacity=".073" d="M-555.353-443.721c-300.941-20.19-213.659 500.038-355.598 678.826-66.378 83.319-276.139 148.14-278.099 282.279-2.82 193.918 283.087 263.782 466.412 281.716 291.246 28.496 283.332 236.56 435.248 275.42 210.873 53.71 226.86-270.077 355.562-329.538C273.74 649.99 323.55 362.755 262.054 175.415 191.886-38.305-12.289-2.773-216.5-119.755c-145.235-83.231-228.199-316.542-338.853-323.966z" stroke="#7776D1" stroke-width=".408" stroke-miterlimit="10" stroke-linecap="round" stroke-linejoin="round"/><path opacity=".049" d="M-556.605-455.394C-861.793-479.27-768.73 58.803-912.132 240.254c-66.784 84.289-281.468 146.941-286.368 279.529-7.26 195.61 293.383 262.283 477.077 278.417 294.79 25.922 284.443 248.99 436.553 287.68 212.442 53.87 225.767-276.57 356.584-335.766 209.675-94.887 259.997-387.818 199.858-575.881C202.444-41.991-13.77.771-219.779-116.175c-146.434-83.161-225.996-330.561-336.826-339.219z" stroke="#7776D1" stroke-width=".392" stroke-miterlimit="10" stroke-linecap="round" stroke-linejoin="round"/><path opacity=".024" d="M-557.856-467.068C-867.275-494.7-768.448 61.272-913.313 245.403c-67.172 85.259-286.807 145.689-294.647 276.778-11.79 197.232 303.689 260.749 487.718 275.12 298.315 23.294 285.571 261.419 437.857 299.929 214.028 54.03 224.727-282.877 357.59-341.985C289.091 660.693 340.1 361.75 281.053 173.034 213.284-45.782-15.286 4.298-223.075-112.613c-147.632-83.09-223.757-344.544-334.781-354.455z" stroke="#7776D1" stroke-width=".376" stroke-miterlimit="10" stroke-linecap="round" stroke-linejoin="round"/></svg>