<svg width="40" height="40" viewBox="0 0 40 40" fill="none" xmlns="http://www.w3.org/2000/svg">
<path fill-rule="evenodd" clip-rule="evenodd" d="M22.5 13.8693L30 9.64824V18.0905L22.5 13.8693ZM30 31.9598L20 37.5879L10 31.9598V22.1105L20 27.7387L30 22.1105V31.9598ZM10 9.64824L17.5 13.8693L10 18.0905V9.64824ZM21.25 15.8794L28.75 20.1005L21.25 24.3215V15.8794ZM18.75 24.3215L11.25 20.1005L18.75 15.8794V24.3215ZM28.75 7.63819L20 12.4624L11.25 7.63819L20 2.61306L28.75 7.63819ZM7.5 6.83416V33.1658L20 40L32.5 33.1658V6.83416L20 0L7.5 6.83416Z" fill="#9795A9"/>
</svg>
