<svg width="41" height="40" viewBox="0 0 41 40" fill="none" xmlns="http://www.w3.org/2000/svg">
<path d="M29.4017 14.0306C28.762 13.6151 27.9396 13.6151 27.2084 14.0306L22.091 17.4578L18.6185 19.6389L13.5923 23.0661C12.9526 23.4816 12.1302 23.4816 11.3991 23.0661L7.46959 20.3659C6.8299 19.9505 6.37297 19.1196 6.37297 18.1848V12.992C6.37297 12.1611 6.73851 11.3303 7.46959 10.811L11.3991 8.21456C12.0388 7.79913 12.8612 7.79913 13.5923 8.21456L17.5217 10.9148C18.1615 11.3303 18.6185 12.1611 18.6185 13.0959V16.5231L22.091 14.2383V10.7071C22.091 9.87628 21.7255 9.04541 20.9944 8.52612L13.6837 3.64482C13.044 3.22939 12.2215 3.22939 11.4905 3.64482L3.997 8.62998C3.26593 9.04541 2.90039 9.87628 2.90039 10.7071V20.4698C2.90039 21.3006 3.26593 22.1314 3.997 22.6507L11.3991 27.532C12.0388 27.9475 12.8612 27.9475 13.5923 27.532L18.6185 24.2087L22.091 21.9237L27.1171 18.6003C27.7567 18.1848 28.5792 18.1848 29.3103 18.6003L33.2398 21.1967C33.8795 21.6122 34.3364 22.443 34.3364 23.3777V28.5706C34.3364 29.4015 33.9709 30.2324 33.2398 30.7516L29.4017 33.348C28.762 33.7635 27.9396 33.7635 27.2084 33.348L23.279 30.7516C22.6393 30.3362 22.1823 29.5054 22.1823 28.5706V25.2472L18.7098 27.532V30.9594C18.7098 31.7902 19.0753 32.621 19.8064 33.1403L27.2084 38.0216C27.8482 38.4371 28.6707 38.4371 29.4017 38.0216L36.8038 33.1403C37.4434 32.7249 37.9004 31.8941 37.9004 30.9594V21.0929C37.9004 20.262 37.5349 19.4312 36.8038 18.9118L29.4017 14.0306Z" fill="#9795A9"/>
</svg>
