<svg xmlns="http://www.w3.org/2000/svg" viewBox="0 0 479.05 503.65">
<defs><style>.cls-1{fill:#fff;stroke:#fff;stroke-miterlimit:10;stroke-width:13px;}.cls-2{fill:#1b1d32;}
</style>
</defs>
<g id="Layer_2" data-name="Layer 2">
<g id="Слой_5" data-name="Слой 5">
<path class="cls-1" d="M428.56,127.85a218,218,0,0,0,13.63-38.09c5.35-21.11,7-41.86,4.8-61.66-.73-6.68-2.89-18.29-9.13-21-2.79-1.22-5.93-.56-9.32,2-10.5,7.81-40.57,34.83-65,57.13a233.82,233.82,0,0,0-248.34.23C90.67,44.07,60.43,16.89,49.89,9.05c-3.39-2.52-6.53-3.18-9.32-2-6.24,2.72-8.4,14.33-9.13,21-2.17,19.8-.55,40.55,4.8,61.66a217.57,217.57,0,0,0,13.87,38.6,233.12,233.12,0,0,0,6.74,280.47,238.08,238.08,0,0,0,17.9,20.07,233,233,0,0,0,329.55,0,237.14,237.14,0,0,0,16.46-18.28c33.88-41.75,51.79-92.41,51.79-146.5A232.52,232.52,0,0,0,428.56,127.85Z"/><path class="cls-2" d="M428.56,127.85a218,218,0,0,0,13.63-38.09c5.35-21.11,7-41.86,4.8-61.66-.73-6.68-2.89-18.29-9.13-21-2.79-1.22-5.93-.56-9.32,2-10.5,7.81-40.57,34.83-65,57.13a233.82,233.82,0,0,0-248.34.23C90.67,44.07,60.43,16.89,49.89,9.05c-3.39-2.52-6.53-3.18-9.32-2-6.24,2.72-8.4,14.33-9.13,21-2.17,19.8-.55,40.55,4.8,61.66a217.57,217.57,0,0,0,13.87,38.6,233.12,233.12,0,0,0,6.74,280.47,238.08,238.08,0,0,0,17.9,20.07,233,233,0,0,0,329.55,0,237.14,237.14,0,0,0,16.46-18.28c33.88-41.75,51.79-92.41,51.79-146.5A232.52,232.52,0,0,0,428.56,127.85Zm-52.9-16.12c9.19-18.2,17.8-38,34.3-50.89a41.13,41.13,0,0,1,12.54-6.57c-15.65,11.25-24.57,28.52-33.18,45.12-8.77,17-16.17,34.6-33.17,45.13C368.71,126.46,370.29,122.34,375.66,111.73ZM239.53,41.55A220.51,220.51,0,0,1,355,73.94C341.4,86.4,330.87,96.14,328.85,98c.61-2.35,3.13-12.13,3.39-13.08,1.64-6.13,1.43-9.46-.72-10.8-2.93-1.82-7.59.79-18.53,10.38-3.06,2.68-19.06,17.81-25.92,25,2.16-7,4.24-13.78,6.45-21a150.82,150.82,0,0,0-53.73-9.83h-1.16a150.81,150.81,0,0,0-53.72,9.83c2.21,7.19,4.29,14,6.44,21-6.85-7.22-22.85-22.35-25.91-25-10.94-9.59-15.61-12.2-18.53-10.38-2.15,1.34-2.37,4.67-.72,10.8.26,1,2.78,10.73,3.39,13.08-2-1.87-12.42-11.49-25.91-23.84A220.25,220.25,0,0,1,239.53,41.55ZM68.47,60.84c16.5,12.85,25.11,32.69,34.3,50.89,5.37,10.61,7,14.73,19.51,32.79-17-10.53-24.4-28.18-33.17-45.13C80.5,82.79,71.58,65.52,55.93,54.27A41.13,41.13,0,0,1,68.47,60.84Zm16,298.36c-9.79,15.42-16.93,27.58-23,39.16a222.54,222.54,0,0,1-6.27-259.74,240.27,240.27,0,0,0,37.35,52.11,149.55,149.55,0,0,0-4.52,25.55q-1.26.42-2.46.93a27.39,27.39,0,0,0-12.28,9.94c-10,14.78-2.4,50.51,27.52,84.7,1.59,1.82,3.22,3.59,4.88,5.34A246.39,246.39,0,0,1,84.48,359.2Zm284.27-53.64a175.27,175.27,0,0,1-61.81,44.73,55.75,55.75,0,0,0-6.69-16.42c-.18-.31-.37-.59-.56-.88A62.49,62.49,0,0,1,293,355.65c-.14.27-.27.54-.42.81a62.43,62.43,0,0,1-8,11.64l-.26.3-.33.36-.78.85c-.31.34-.62.67-.94,1-.14.13-.27.27-.4.41a53.46,53.46,0,0,1-9.63,7.64c-2.41,1.47-5.52,3-8.53,3.2a8,8,0,0,1-3.72-.59c-3-1.33-4.76-4.33-6.19-7.19l-.47-.93c-.62-1.28-1.21-2.57-1.79-3.88q-1.07-2.41-2-4.89c-1.48-3.83-2.79-7.74-4-11.67a60.15,60.15,0,0,1-6.81.38,59.43,59.43,0,0,1-6.9-.39c-1.22,4-2.54,7.9-4.05,11.76-.63,1.64-1.31,3.25-2,4.86-.57,1.28-1.15,2.57-1.78,3.83l-.5,1c-1.43,2.83-3.15,5.79-6.15,7.11a8.06,8.06,0,0,1-3.73.59c-3-.19-6.12-1.73-8.52-3.2a54,54,0,0,1-11.6-9.7,62.59,62.59,0,0,1-9.11-13.16l-.17-.06A62.28,62.28,0,0,1,177.43,333l-.57.88a56.09,56.09,0,0,0-6.7,16.49,176,176,0,0,1-60.58-43.7l-1.23-1.36c-27.88-31.86-33.44-62.6-26.75-72.53a16.9,16.9,0,0,1,5.86-5.33,22.49,22.49,0,0,1,2-1A36.53,36.53,0,0,1,103.63,224c9.16,0,19.09,2,26.57,3.56l7.85,1.63.34-5.79c.78-13.2,2.08-25.83,3.85-37.51,6.12-37.91,15.94-58.09,29.19-60,11.85-1.3,34.6,15.55,62.87,66.76l4.39,8,4.37-8c28.19-51.21,50.95-68,62.87-66.76,13.26,1.9,23.08,22.08,29.19,59.94,1.78,11.74,3.07,24.37,3.85,37.56l.34,5.79,7.85-1.63c11.69-2.39,29.36-6,40.72-1.18a20.2,20.2,0,0,1,3.1,1.64,16.53,16.53,0,0,1,4.78,4.68c6.7,9.93,1.13,40.67-26.75,72.53C368.92,305.37,368.83,305.46,368.75,305.56Zm47.46,94.6c-5.54-10.78-11.48-21.3-17.75-32.41-2.63-4.64-5.28-9.33-7.91-14.08a322.06,322.06,0,0,1-17.84-37.6c1.3-1.39,2.57-2.79,3.82-4.22,29.93-34.19,37.49-69.92,27.52-84.71a27.46,27.46,0,0,0-12.27-9.93c-.45-.19-.91-.35-1.36-.51a151.15,151.15,0,0,0-4.56-26,239.67,239.67,0,0,0,37.61-52.62,222.57,222.57,0,0,1-7.26,262.05Z"/><path class="cls-2" d="M170.67,233.15c-13.69,0-25.88,7.43-33.74,19a51.17,51.17,0,0,0-4.48,8.1A57.31,57.31,0,0,0,134.56,287c6.16,18.73,21.78,32,40.1,32a37.62,37.62,0,0,0,15-3.11c10.1-4.36,18.39-13,23.26-24a58.23,58.23,0,0,0,.7-9,54.8,54.8,0,0,0-9.18-30.75C196.54,240.59,184.36,233.15,170.67,233.15Z"/><path class="cls-2" d="M340.43,252.16c-7.86-11.58-20.05-19-33.74-19s-25.87,7.44-33.73,19a54.8,54.8,0,0,0-9.18,30.75,58.23,58.23,0,0,0,.7,9c5,11.23,13.49,20,23.86,24.24a37.38,37.38,0,0,0,14.37,2.87c18.08,0,33.54-13,39.86-31.34a56.61,56.61,0,0,0,3.05-18.42,58,58,0,0,0-.7-9A51.21,51.21,0,0,0,340.43,252.16Z"/></g></g></svg>