<svg width="16" height="16" viewBox="0 0 16 16" fill="none" xmlns="http://www.w3.org/2000/svg">
<path fill-rule="evenodd" clip-rule="evenodd" d="M0 6.66667C0 2.98477 2.98477 0 6.66667 0C10.3486 0 13.3333 2.98477 13.3333 6.66667C13.3333 10.3486 10.3486 13.3333 6.66667 13.3333C2.98477 13.3333 0 10.3486 0 6.66667ZM10.6667 6.66667C10.6667 4.45753 8.87581 2.66667 6.66667 2.66667C4.45753 2.66667 2.66667 4.45753 2.66667 6.66667C2.66667 8.87581 4.45753 10.6667 6.66667 10.6667C8.87581 10.6667 10.6667 8.87581 10.6667 6.66667Z" fill="#2E3034"/>
<path d="M9.72353 9.72402C10.2168 9.23073 11.0005 9.20476 11.5243 9.64613L11.6092 9.72402L15.6091 13.724C16.1298 14.2447 16.1298 15.0889 15.6091 15.6096C15.1159 16.1029 14.3322 16.1289 13.8083 15.6875L13.7235 15.6096L9.72353 11.6096C9.20283 11.0889 9.20283 10.2447 9.72353 9.72402Z" fill="#2E3034"/>
</svg>
