<svg width="20" height="20" viewBox="0 0 20 20" fill="none" xmlns="http://www.w3.org/2000/svg">
<path fill-rule="evenodd" clip-rule="evenodd" d="M10.9662 0C11.833 0 12.5551 0.664437 12.6271 1.52826L12.7502 3.00261C13.4563 3.27573 14.1106 3.65263 14.6946 4.1146L16.0228 3.48877C16.8069 3.1192 17.7434 3.41235 18.1768 4.16303L19.1432 5.83697C19.5766 6.58765 19.3623 7.54523 18.6502 8.03948L17.4601 8.86596C17.5162 9.2358 17.5453 9.6145 17.5453 10C17.5453 10.3855 17.5162 10.7642 17.4601 11.134L18.6502 11.9605C19.3623 12.4548 19.5766 13.4123 19.1432 14.163L18.1768 15.837C17.7434 16.5877 16.8069 16.8808 16.0228 16.5112L14.6946 15.8854C14.1109 16.3472 13.4568 16.724 12.751 16.9971L12.6271 18.4717C12.5551 19.3356 11.833 20 10.9662 20H9.0333C8.16649 20 7.44438 19.3356 7.37239 18.4717L7.2461 16.9602C6.56266 16.6851 5.92906 16.3122 5.36263 15.8589L3.97668 16.5112C3.1926 16.8808 2.25612 16.5877 1.82272 15.837L0.85627 14.163C0.422863 13.4123 0.637228 12.4548 1.34933 11.9605L2.62193 11.0765C2.57141 10.7249 2.54526 10.3655 2.54526 10C2.54526 9.6342 2.57145 9.27451 2.62205 8.92271L1.34933 8.03948C0.637228 7.54523 0.422863 6.58765 0.85627 5.83697L1.82272 4.16303C2.25612 3.41235 3.1926 3.1192 3.97668 3.48877L5.36263 4.14106C5.92906 3.68777 6.56266 3.3149 7.2461 3.03979L7.37239 1.52826C7.44438 0.664437 8.16649 0 9.0333 0H10.9662ZM10.0453 6.66667C8.20431 6.66667 6.71193 8.15905 6.71193 10C6.71193 11.841 8.20431 13.3333 10.0453 13.3333C11.8862 13.3333 13.3786 11.841 13.3786 10C13.3786 8.15905 11.8862 6.66667 10.0453 6.66667Z" fill="white"/>
</svg>
