<svg width="40" height="40" viewBox="0 0 40 40" fill="none" xmlns="http://www.w3.org/2000/svg">
<circle cx="20" cy="20" r="14.4" fill="white"/>
<path fill-rule="evenodd" clip-rule="evenodd" d="M20 2C29.9411 2 38 10.0589 38 20C38 29.9411 29.9411 38 20 38C10.0589 38 2 29.9411 2 20C2 10.0589 10.0589 2 20 2ZM20 7.4C13.0412 7.4 7.4 13.0412 7.4 20C7.4 26.9588 13.0412 32.6 20 32.6C26.9588 32.6 32.6 26.9588 32.6 20C32.6 13.0412 26.9588 7.4 20 7.4ZM22.7692 16.4C23.2281 16.4 23.6 16.7719 23.6 17.2308V22.7692C23.6 23.2281 23.2281 23.6 22.7692 23.6H17.2308C16.7719 23.6 16.4 23.2281 16.4 22.7692V17.2308C16.4 16.7719 16.7719 16.4 17.2308 16.4H22.7692Z" fill="#0052FF"/>
</svg>
