<svg width="72" height="24" viewBox="0 0 72 24" fill="none" xmlns="http://www.w3.org/2000/svg">
<path d="M62.3186 23.5L48.6656 23.5L57.9754 11.9999L48.6656 0.499882L62.3186 0.499881L71.6285 11.9999L62.3186 23.5Z" fill="url(#paint0_linear)"/>
<path d="M44.9726 23.5L40.5175 23.5L49.8274 11.9999L40.5175 0.499878L44.9726 0.499877L54.2825 11.9999L44.9726 23.5Z" fill="url(#paint1_linear)"/>
<path d="M36.9151 23.5L32.46 23.5L41.7698 11.9999L32.46 0.499878L36.915 0.499878L46.2249 11.9999L36.9151 23.5Z" fill="url(#paint2_linear)"/>
<path d="M29.0834 23.5001L24.6284 23.5001L33.9382 12.0001L24.6284 0.5L29.0834 0.499999L38.3933 12.0001L29.0834 23.5001Z" fill="url(#paint3_linear)"/>
<path d="M21.0259 23.5001L16.5708 23.5001L25.8807 12.0001L16.5708 0.5L21.0259 0.5L30.3357 12.0001L21.0259 23.5001Z" fill="url(#paint4_linear)"/>
<path d="M13.1943 23.5001L8.7392 23.5001L18.0491 12.0001L8.7392 0.5L13.1943 0.499999L22.5041 12.0001L13.1943 23.5001Z" fill="url(#paint5_linear)"/>
<path d="M5.13673 23.5001L0.681643 23.5001L9.99149 12.0001L0.681641 0.5L5.13673 0.5L14.4466 12.0001L5.13673 23.5001Z" fill="url(#paint6_linear)"/>
<defs>
<linearGradient id="paint0_linear" x1="68.1611" y1="11.9999" x2="34.4164" y2="11.9999" gradientUnits="userSpaceOnUse">
<stop stop-color="#0DC8E9"/>
<stop offset="1" stop-color="#0CCCE9" stop-opacity="0"/>
<stop offset="1" stop-color="#0CCCE9" stop-opacity="0"/>
</linearGradient>
<linearGradient id="paint1_linear" x1="68.1611" y1="11.9999" x2="34.4164" y2="11.9999" gradientUnits="userSpaceOnUse">
<stop stop-color="#0DC8E9"/>
<stop offset="1" stop-color="#0CCCE9" stop-opacity="0"/>
<stop offset="1" stop-color="#0CCCE9" stop-opacity="0"/>
</linearGradient>
<linearGradient id="paint2_linear" x1="68.1611" y1="11.9999" x2="34.4164" y2="11.9999" gradientUnits="userSpaceOnUse">
<stop stop-color="#0DC8E9"/>
<stop offset="1" stop-color="#0CCCE9" stop-opacity="0"/>
<stop offset="1" stop-color="#0CCCE9" stop-opacity="0"/>
</linearGradient>
<linearGradient id="paint3_linear" x1="52.2719" y1="12.0001" x2="18.5272" y2="12.0001" gradientUnits="userSpaceOnUse">
<stop stop-color="#0DC8E9"/>
<stop offset="1" stop-color="#0CCCE9" stop-opacity="0"/>
<stop offset="1" stop-color="#0CCCE9" stop-opacity="0"/>
</linearGradient>
<linearGradient id="paint4_linear" x1="52.2719" y1="12.0001" x2="18.5272" y2="12.0001" gradientUnits="userSpaceOnUse">
<stop stop-color="#0DC8E9"/>
<stop offset="1" stop-color="#0CCCE9" stop-opacity="0"/>
<stop offset="1" stop-color="#0CCCE9" stop-opacity="0"/>
</linearGradient>
<linearGradient id="paint5_linear" x1="36.3828" y1="12.0001" x2="2.63806" y2="12.0001" gradientUnits="userSpaceOnUse">
<stop stop-color="#0DC8E9"/>
<stop offset="1" stop-color="#0CCCE9" stop-opacity="0"/>
<stop offset="1" stop-color="#0CCCE9" stop-opacity="0"/>
</linearGradient>
<linearGradient id="paint6_linear" x1="36.3828" y1="12.0001" x2="2.63806" y2="12.0001" gradientUnits="userSpaceOnUse">
<stop stop-color="#0DC8E9"/>
<stop offset="1" stop-color="#0CCCE9" stop-opacity="0"/>
<stop offset="1" stop-color="#0CCCE9" stop-opacity="0"/>
</linearGradient>
</defs>
</svg>
