<svg width="25" height="25" viewBox="0 0 25 25" fill="none" xmlns="http://www.w3.org/2000/svg">
<path d="M18.1925 17.4856L6.92982 17.4856C6.36714 17.4856 5.911 17.0295 5.911 16.4668C5.911 15.9041 6.36714 15.4479 6.92982 15.4479L18.1925 15.4479L15.7807 13.0362C15.4018 12.6573 15.4018 12.0429 15.7807 11.664C16.1596 11.285 16.774 11.285 17.1529 11.664L21.2696 15.7807C21.6486 16.1596 21.6486 16.774 21.2696 17.1529L17.1529 21.2696C16.774 21.6485 16.1596 21.6485 15.7807 21.2696C15.4018 20.8906 15.4018 20.2763 15.7807 19.8973L18.1925 17.4856ZM6.50781 7.21455L17.7704 7.21455C18.3331 7.21455 18.7893 7.6707 18.7893 8.23338C18.7893 8.79607 18.3331 9.25221 17.7704 9.25221L6.50781 9.25221L8.91956 11.664C9.29849 12.0429 9.29849 12.6573 8.91956 13.0362C8.54063 13.4151 7.92626 13.4151 7.54733 13.0362L3.43064 8.9195C3.05171 8.54057 3.05171 7.9262 3.43064 7.54727L7.54733 3.43058C7.92626 3.05165 8.54063 3.05165 8.91956 3.43058C9.29849 3.80951 9.29849 4.42388 8.91956 4.80281L6.50781 7.21455Z" fill="url(#paint0_linear)"/>
<defs>
<linearGradient id="paint0_linear" x1="9.26262" y1="-1.71529" x2="7.19313" y2="34.5085" gradientUnits="userSpaceOnUse">
<stop offset="0.277134" stop-color="#10BBEB"/>
<stop offset="0.894626" stop-color="#00FFE0"/>
</linearGradient>
</defs>
</svg>
