<svg width="40" height="25" viewBox="0 0 40 25" fill="none" xmlns="http://www.w3.org/2000/svg">
<path fill-rule="evenodd" clip-rule="evenodd" d="M31.8112 4.88456C25.2881 -1.62819 14.712 -1.62819 8.18883 4.88456L7.32714 5.74488C7.00099 6.07051 7.00099 6.59848 7.32714 6.92412L10.0127 9.60541C10.1758 9.76823 10.4402 9.76823 10.6033 9.60541L11.7602 8.45028C16.3109 3.90683 23.6891 3.90683 28.2398 8.45028L29.3202 9.52891C29.4832 9.69173 29.7476 9.69173 29.9107 9.52891L32.5963 6.84762C32.9224 6.52198 32.9224 5.99402 32.5963 5.66838L31.8112 4.88456ZM39.7554 12.8161L37.3652 10.4298C37.0391 10.1041 36.5103 10.1041 36.1841 10.4298L28.535 18.0667C28.4534 18.1481 28.3212 18.1481 28.2397 18.0667L20.5905 10.4296L20.5904 10.4296C20.2643 10.104 19.7355 10.104 19.4093 10.4296L11.7604 18.0667C11.6789 18.1481 11.5467 18.1481 11.4652 18.0667L3.8159 10.4296C3.48975 10.104 2.96094 10.104 2.63478 10.4296L0.244618 12.816C-0.0815392 13.1416 -0.0815392 13.6696 0.244618 13.9952L11.0223 24.7558C11.3485 25.0814 11.8773 25.0814 12.2034 24.7558L19.8524 17.1188C19.934 17.0374 20.0662 17.0374 20.1477 17.1188L27.7969 24.7558C28.123 25.0814 28.6518 25.0814 28.978 24.7558L39.7554 13.9954C40.0815 13.6697 40.0815 13.1418 39.7554 12.8161Z" fill="#3B99FC"/>
</svg>
