<?xml version="1.0" encoding="utf-8"?>
<!-- Generator: Adobe Illustrator 23.0.1, SVG Export Plug-In . SVG Version: 6.00 Build 0)  -->
<svg version="1.1" xmlns="http://www.w3.org/2000/svg" xmlns:xlink="http://www.w3.org/1999/xlink" x="0px" y="0px"
	 viewBox="0 0 1024 1024" style="enable-background:new 0 0 1024 1024;" xml:space="preserve">
<style type="text/css">
	.st0{fill:#FFFFFF;}
	.st1{enable-background:new    ;}
	.st2{fill-rule:evenodd;clip-rule:evenodd;fill:url(#SVGID_1_);}
</style>
<g id="图层_2">
	<circle class="st0" cx="512" cy="512" r="512"/>
</g>
<g id="圆角矩形_1_拷贝_2_1_" class="st1">
	<g id="圆角矩形_1_拷贝_2">
		<g>
			<linearGradient id="SVGID_1_" gradientUnits="userSpaceOnUse" x1="512" y1="0" x2="512" y2="1024">
				<stop  offset="0" style="stop-color:#EA19E5"/>
				<stop  offset="1" style="stop-color:#F0635F"/>
			</linearGradient>
			<path class="st2" d="M512,0C229.23,0,0,229.23,0,512s229.23,512,512,512s512-229.23,512-512S794.77,0,512,0z M512,44
				c36.46,0,71.94,4.17,106,12.06v328.91l-362.59-264.4C329.09,72.16,417.25,44,512,44z M211.7,153.05L618,449.32v45.56
				L184.38,177.81C193.15,169.2,202.27,160.95,211.7,153.05z M512,980c-37.56,0-74.08-4.43-109.07-12.79V635.03l366.88,267.6
				C695.87,951.53,607.27,980,512,980z M813.36,870.05c-0.02-0.01-0.04-0.03-0.05-0.04L402.93,570.68v-45.56l437.66,320.12
				C831.84,853.86,822.75,862.14,813.36,870.05z M872.29,804.01L392.95,453.4c-0.78-0.57-1.58-1.08-2.4-1.55
				c-3.96-2.44-8.62-3.85-13.62-3.85c-14.36,0-25.99,11.64-25.99,25.99v477.56c-16.13-5.91-31.84-12.7-47.09-20.29
				c0.06-0.74,0.1-1.49,0.1-2.25V401.99c0-14.36-11.64-25.99-25.99-25.99c-14.36,0-25.99,11.64-25.99,25.99v499.15
				c-16.46-11.02-32.18-23.07-47.08-36.04c0.06-0.69,0.09-1.39,0.09-2.1V330.99c0-14.36-11.64-25.99-25.99-25.99
				S153,316.64,153,330.99v481.23C84.96,730.97,44,626.27,44,512c0-112.09,39.41-214.97,105.13-295.55L627.97,566.6
				c0.78,0.57,1.59,1.09,2.42,1.56c3.96,2.44,8.62,3.85,13.61,3.85c14.36,0,26-11.64,26-26V71.35c16.1,5.77,31.78,12.42,47,19.85
				V618c0,14.36,11.64,26,26,26s26-11.64,26-26V120.85c16.43,10.81,32.12,22.64,47.02,35.38c-0.01,0.26-0.02,0.51-0.02,0.77v532
				c0,14.36,11.64,26,26,26s26-11.64,26-26V208.25C937.83,289.99,980,396.06,980,512c0,111.73-39.16,214.31-104.5,294.78
				C874.52,805.79,873.45,804.86,872.29,804.01z"/>
		</g>
	</g>
</g>
</svg>
